<?xml version="1.0" encoding="utf-8"?>
<!-- Generator: Adobe Illustrator 26.4.1, SVG Export Plug-In . SVG Version: 6.00 Build 0)  -->
<svg version="1.1" id="Layer_1" xmlns="http://www.w3.org/2000/svg" xmlns:xlink="http://www.w3.org/1999/xlink" x="0px" y="0px"
	 viewBox="0 0 50 50" style="enable-background:new 0 0 50 50;" xml:space="preserve">

<g>
	<path class="st0" d="M42.7,3.7c-0.2,0-0.4,0-0.6,0c-9.5,0-19,0-28.5,0c-2.4,0-4.2,1.6-4.5,3.9c-0.4,2.4,1.5,4.8,3.9,5
		c0.3,0,0.6,0,1,0c8.9,0,17.8,0,26.7,0c0.4,0,0.9,0.1,1.3,0.3c0.6,0.3,0.8,1,0.8,1.7c0,3.1,0,6.2,0,9.3c0,7.9,0,15.7,0,23.6
		c0,0.2,0,0.4,0,0.6c-0.2,0-0.4,0-0.6,0c-9.5,0-19,0-28.6,0c-3.2,0-5.7-2-6.3-5.1c-0.1-0.5-0.1-1-0.1-1.5c0-11.1,0-22.2,0-33.2
		c0-3.2,2-5.7,5.1-6.3c0.4-0.1,0.8-0.1,1.3-0.1c9,0,18.1,0,27.1,0C41.9,1.9,42.7,2.5,42.7,3.7z M40.9,46.3c0-10.7,0-21.3,0-32
		c-0.4,0-0.7,0-1,0c-8.8,0-17.6,0-26.4,0c-1.6,0-3-0.5-4.2-1.5c-0.1-0.1-0.2-0.1-0.3-0.2c0,0.3,0,0.5,0,0.7c0,9.4,0,18.8,0,28.3
		c0,2.9,1.9,4.8,4.8,4.8c8.9,0,17.7,0,26.6,0C40.5,46.3,40.7,46.3,40.9,46.3z"/>
	<path class="st0" d="M11,9c10,0,19.9,0,29.9,0c0,0.6,0,1.1,0,1.7c-0.2,0-0.3,0-0.5,0c-8.9,0-17.9,0-26.8,0
		C12.3,10.8,11.3,10.1,11,9z"/>
	<path class="st0" d="M41,5.5c0,0.6,0,1.1,0,1.7c-10,0-20,0-29.9,0c0.2-0.9,1.2-1.6,2.2-1.7c0.2,0,0.4,0,0.6,0c8.9,0,17.8,0,26.6,0
		C40.6,5.5,40.7,5.5,41,5.5z"/>
</g>
</svg>
