<?xml version="1.0" encoding="utf-8"?>
<!-- Generator: Adobe Illustrator 26.4.1, SVG Export Plug-In . SVG Version: 6.00 Build 0)  -->
<svg version="1.1" id="Layer_1" xmlns="http://www.w3.org/2000/svg" xmlns:xlink="http://www.w3.org/1999/xlink" x="0px" y="0px"
	 viewBox="0 0 50 50" style="enable-background:new 0 0 50 50;" xml:space="preserve">

<g>
	<path class="st0" d="M5.5,15.8c13,0,26,0,39,0c0-1.4,0.1-2.8,0-4.2c-0.1-1.2-1.3-2-2.6-2c-2,0-4,0-6.1,0c-0.1,0-0.2,0-0.3,0
		c-0.5,0-0.8-0.3-0.8-0.6c0-0.4,0.3-0.6,0.8-0.6c2.2,0,4.3,0,6.5,0c2,0,3.7,1.6,3.8,3.7c0,0.3,0,0.7,0,1c0,9.6,0,19.3,0,28.9
		c0,2.6-1.6,4.2-4.2,4.2c-11,0-22.1,0-33.1,0c-2.6,0-4.2-1.6-4.2-4.2c0-9.8,0-19.6,0-29.5c0-2.4,1.7-4.1,4.1-4.1c0.5,0,1,0,1.6,0
		c0.5,0,0.8,0.3,0.7,0.7c0,0.4-0.3,0.6-0.7,0.6c-0.6,0-1.2,0-1.8,0c-1.4,0-2.5,1-2.6,2.4C5.4,13.2,5.5,14.5,5.5,15.8z M5.5,17.1
		c0,0.2,0,0.4,0,0.5c0,8.1,0,16.2,0,24.3c0,1.8,1.1,2.9,2.9,2.9c11.1,0,22.1,0,33.2,0c1.8,0,2.9-1.1,2.9-2.9c0-8.1,0-16.2,0-24.3
		c0-0.2,0-0.3,0-0.5C31.5,17.1,18.5,17.1,5.5,17.1z"/>
	<path class="st0" d="M22.6,9.6c-2.4,0-4.8,0-7.3,0c-0.1,0-0.3,0-0.4,0c-0.4-0.1-0.6-0.3-0.6-0.6c0-0.4,0.2-0.6,0.6-0.6
		c0.1,0,0.3,0,0.4,0c4.9,0,9.8,0,14.7,0c0.1,0,0.3,0,0.4,0c0.3,0.1,0.6,0.3,0.5,0.6c0,0.3-0.2,0.6-0.6,0.6c-0.2,0-0.3,0-0.5,0
		C27.4,9.6,25,9.6,22.6,9.6z"/>
	<path class="st0" d="M13.1,9.1c0,0.8,0.2,1.8,0.7,2.6c0.3,0.6,0.8,1,1.5,1.1c0.4,0,0.6,0.3,0.6,0.7c0,0.4-0.3,0.6-0.7,0.6
		c-0.8,0-1.4-0.4-1.9-1c-1.2-1.3-1.5-3-1.3-4.7C11.9,7.2,12.3,6,13,5.1c1.2-1.5,3.2-1.6,4.4,0c0.4,0.5,0.6,1,0.9,1.6
		c0.2,0.4,0,0.7-0.3,0.8c-0.3,0.2-0.7,0-0.9-0.4c-0.2-0.4-0.4-0.9-0.7-1.3C15.6,5,14.7,5,14,5.9C13.5,6.6,13.1,7.7,13.1,9.1z"/>
	<path class="st0" d="M33.3,9c0,1,0.2,1.9,0.7,2.7c0.3,0.6,0.7,1,1.5,1.1c0.4,0,0.6,0.3,0.6,0.7c0,0.4-0.3,0.6-0.7,0.6
		c-0.7,0-1.3-0.4-1.8-0.9c-0.8-0.9-1.2-1.9-1.4-3.1c-0.2-1.7,0-3.4,1-4.8c1.2-1.8,3.3-1.8,4.6-0.1c0.3,0.4,0.5,0.9,0.7,1.4
		c0.2,0.4,0,0.8-0.3,0.9c-0.4,0.1-0.7,0-0.9-0.5c-0.2-0.4-0.4-0.9-0.7-1.3C35.8,5,35,5,34.3,5.8c-0.7,0.8-0.9,1.8-1,2.8
		C33.3,8.7,33.3,8.8,33.3,9z"/>
	<path class="st0" d="M32.2,32.8c-0.3,0-0.6,0-0.9,0c-0.7,0-1.2-0.4-1.2-1.1c0-0.7,0-1.4,0-2c0-0.7,0.5-1.1,1.2-1.1c0.6,0,1.3,0,2,0
		c0.7,0,1.2,0.5,1.2,1.2c0,0.6,0,1.3,0,1.9c0,0.8-0.5,1.2-1.2,1.2C32.8,32.8,32.5,32.8,32.2,32.8z"/>
	<path class="st0" d="M25.2,32.8c-0.3,0-0.6,0-0.9,0c-0.7,0-1.2-0.4-1.2-1.1c0-0.7,0-1.4,0-2c0-0.7,0.5-1.1,1.2-1.1c0.7,0,1.3,0,2,0
		c0.7,0,1.1,0.4,1.2,1.1c0,0.7,0,1.4,0,2c0,0.7-0.5,1.1-1.2,1.1C25.9,32.8,25.6,32.8,25.2,32.8z"/>
	<path class="st0" d="M32.2,35.9c0.3,0,0.7,0,1,0c0.6,0,1.1,0.5,1.1,1.1c0,0.7,0,1.4,0,2.1c0,0.6-0.5,1-1.1,1.1c-0.7,0-1.4,0-2,0
		c-0.7,0-1.1-0.5-1.1-1.2c0-0.6,0-1.3,0-1.9c0-0.8,0.5-1.2,1.3-1.2C31.6,35.9,31.9,35.9,32.2,35.9C32.2,35.9,32.2,35.9,32.2,35.9z"
		/>
	<path class="st0" d="M25.2,40.2c-0.3,0-0.7,0-1,0c-0.7,0-1.1-0.4-1.2-1.1c0-0.7,0-1.4,0-2.1c0-0.7,0.5-1.1,1.2-1.1c0.6,0,1.3,0,2,0
		c0.7,0,1.2,0.5,1.2,1.2c0,0.6,0,1.3,0,1.9c0,0.7-0.5,1.2-1.3,1.2C25.9,40.2,25.5,40.2,25.2,40.2z"/>
	<path class="st0" d="M25.2,21.1c0.3,0,0.7,0,1,0c0.7,0,1.1,0.4,1.2,1.1c0,0.7,0,1.4,0,2.1c0,0.7-0.5,1.1-1.2,1.1
		c-0.6,0-1.3,0-1.9,0c-0.7,0-1.1-0.4-1.1-1.1c0-0.7,0-1.4,0-2.1c0-0.7,0.5-1.1,1.2-1.1C24.6,21.1,24.9,21.1,25.2,21.1
		C25.2,21.1,25.2,21.1,25.2,21.1z"/>
	<path class="st0" d="M32.2,21.1c0.3,0,0.6,0,0.9,0c0.7,0,1.2,0.4,1.2,1.1c0,0.7,0,1.4,0,2c0,0.7-0.5,1.1-1.2,1.1
		c-0.6,0-1.2,0-1.8,0c-0.8,0-1.3-0.5-1.3-1.3c0-0.6,0-1.3,0-1.9c0-0.6,0.5-1,1-1.1C31.5,21.1,31.8,21.1,32.2,21.1
		C32.2,21.1,32.2,21.1,32.2,21.1z"/>
	<path class="st0" d="M20.3,23.2c0,0.4,0,0.7,0,1.1c0,0.6-0.5,1-1.1,1.1c-0.7,0-1.4,0-2.1,0c-0.6,0-1.1-0.5-1.1-1.1
		c0-0.7,0-1.5,0-2.2c0-0.6,0.5-1,1.1-1c0.7,0,1.4,0,2.1,0c0.6,0,1.1,0.4,1.1,1.1C20.3,22.5,20.3,22.9,20.3,23.2z"/>
	<path class="st0" d="M11.2,32.8c-0.3,0-0.7,0-1,0c-0.7,0-1.1-0.5-1.2-1.1c0-0.7,0-1.4,0-2.1c0-0.6,0.5-1.1,1.1-1.1
		c0.7,0,1.4,0,2.1,0c0.6,0,1.1,0.4,1.1,1c0,0.7,0,1.5,0,2.2c0,0.6-0.5,1-1.1,1.1C11.9,32.8,11.6,32.8,11.2,32.8
		C11.2,32.8,11.2,32.8,11.2,32.8z"/>
	<path class="st0" d="M18.2,32.8c-0.3,0-0.7,0-1,0c-0.6,0-1.1-0.5-1.1-1.1c0-0.7,0-1.4,0-2.1c0-0.6,0.5-1,1.1-1.1c0.7,0,1.4,0,2.1,0
		c0.6,0,1,0.5,1.1,1.1c0,0.7,0,1.5,0,2.2c0,0.6-0.5,1-1.1,1C18.9,32.8,18.5,32.8,18.2,32.8z"/>
	<path class="st0" d="M41.2,30.7c0,0.3,0,0.7,0,1c0,0.6-0.5,1.1-1.1,1.1c-0.7,0-1.4,0-2.1,0c-0.6,0-1.1-0.5-1.1-1.1
		c0-0.7,0-1.4,0-2.1c0-0.6,0.5-1.1,1.1-1.1c0.7,0,1.4,0,2.1,0c0.6,0,1.1,0.5,1.1,1.1C41.2,30,41.2,30.3,41.2,30.7z"/>
	<path class="st0" d="M41.2,38.1c0,0.3,0,0.7,0,1c0,0.6-0.5,1.1-1.1,1.1c-0.7,0-1.4,0-2.1,0c-0.6,0-1.1-0.5-1.1-1.1
		c0-0.7,0-1.4,0-2.1c0-0.6,0.5-1.1,1.1-1.1c0.7,0,1.4,0,2.1,0c0.6,0,1,0.5,1.1,1.1C41.2,37.4,41.2,37.7,41.2,38.1z"/>
	<path class="st0" d="M20.3,38.1c0,0.3,0,0.7,0,1c0,0.7-0.5,1.2-1.2,1.2c-0.7,0-1.3,0-2,0c-0.7,0-1.1-0.5-1.1-1.2c0-0.7,0-1.3,0-2
		c0-0.7,0.5-1.1,1.1-1.1c0.7,0,1.3,0,2,0c0.7,0,1.1,0.5,1.2,1.2C20.3,37.4,20.3,37.7,20.3,38.1z"/>
	<path class="st0" d="M11.3,21.1c0.3,0,0.7,0,1,0c0.6,0,1.1,0.4,1.1,1.1c0,0.7,0,1.5,0,2.2c0,0.6-0.5,1-1.1,1c-0.7,0-1.4,0-2,0
		c-0.6,0-1.1-0.5-1.1-1c0-0.7,0-1.5,0-2.2c0-0.6,0.5-1,1.1-1.1C10.6,21.1,10.9,21.1,11.3,21.1C11.3,21.1,11.3,21.1,11.3,21.1z"/>
	<path class="st0" d="M36.9,23.2c0-0.3,0-0.6,0-1c0-0.7,0.5-1.1,1.1-1.2c0.7,0,1.4,0,2,0c0.7,0,1.1,0.5,1.1,1.2c0,0.7,0,1.3,0,2
		c0,0.7-0.5,1.1-1.1,1.1c-0.7,0-1.3,0-2,0c-0.7,0-1.1-0.5-1.2-1.2C36.9,23.9,36.9,23.6,36.9,23.2C36.9,23.2,36.9,23.2,36.9,23.2z"/>
	<path class="st0" d="M11.2,40.2c-0.3,0-0.7,0-1,0c-0.7,0-1.1-0.5-1.2-1.1c0-0.7,0-1.4,0-2c0-0.6,0.5-1.1,1.1-1.1c0.7,0,1.4,0,2,0
		c0.7,0,1.1,0.4,1.1,1.1c0,0.7,0,1.4,0,2.1c0,0.6-0.5,1.1-1.1,1.1C11.9,40.2,11.6,40.2,11.2,40.2z"/>
</g>
</svg>
