<?xml version="1.0" encoding="utf-8"?>
<!-- Generator: Adobe Illustrator 26.4.1, SVG Export Plug-In . SVG Version: 6.00 Build 0)  -->
<svg version="1.1" id="Layer_1" xmlns="http://www.w3.org/2000/svg" xmlns:xlink="http://www.w3.org/1999/xlink" x="0px" y="0px"
	 viewBox="0 0 50 50" style="enable-background:new 0 0 50 50;" xml:space="preserve">

<g>
	<path class="st0" d="M43.1,48.9c-12.2,0-24.3,0-36.5,0c-0.2-0.1-0.4-0.2-0.6-0.2c-1.3-0.5-2.4-1.2-3.3-2.3
		c-0.7-0.8-1.1-1.7-1.4-2.7c-0.1-0.2-0.1-0.4-0.1-0.5c0-2.7,0-5.4,0-8.1c0-0.2,0-0.3,0-0.5c0-7.6,0-15.2,0-22.8c0-0.2,0-0.4,0-0.5
		c0-0.6,0-1.3,0.1-1.9c0.5-2.9,3.4-5.6,6.5-5.6c2.5,0,5,0,7.5-0.1c0,0,0.1,0,0.1,0c0,1.6,0,3.1,0,4.7c-0.1,0-0.2,0-0.3,0
		c-1.3,0-2.6,0-3.9,0.1c-1.1,0-2.3,0.1-3.4,0.1c-0.5,0-0.9,0.2-1.2,0.6c-0.4,0.5-0.6,1-0.6,1.6c0,1.5,0,3,0,4.6c0,0.1,0,0.1,0,0.2
		c12.7,0,25.4,0,38.2,0c0-0.1,0-0.2,0-0.3c0-1.1,0-2.2,0-3.3c0-0.5,0-1.1-0.1-1.6c0-0.7-0.8-1.8-1.7-1.8c-0.3,0-0.5,0-0.8-0.1
		c-2.1,0-4.3-0.1-6.4-0.1c-0.2,0-0.4,0-0.6,0c0-1.6,0-3.2,0-4.8c0.1,0,0.1,0,0.2,0c2.2,0,4.3,0,6.5,0c0.7,0,1.5,0,2.2,0.2
		c1.8,0.4,3.2,1.5,4.2,3c0.6,0.8,1,1.7,1,2.8c0,0.8,0.1,1.7,0.1,2.5c0,0.1,0,0.2,0,0.4c0,6.3,0,12.6,0,18.8c0,0.1,0,0.3,0,0.4
		c0,3.6,0,7.3,0,10.9c0,0.4-0.1,0.8-0.2,1.2c-0.8,2.3-2.4,3.9-4.7,4.8C43.6,48.7,43.4,48.8,43.1,48.9z M44.1,20.3
		c-12.7,0-25.4-0.1-38.2,0c0,0.5,0,0.9,0,1.4c0,4.5,0,9,0,13.5c0,2.3,0.1,4.5,0.1,6.8c0,0.8,0.4,1.3,1,1.7c0.3,0.2,0.7,0.4,1.1,0.4
		c1.6,0,3.3,0.1,4.9,0.1c5.6,0,11.2,0,16.8,0c4,0,8.1-0.1,12.1-0.1c1.1,0,2.1-0.9,2.2-2c0.1-0.6,0.1-1.3,0.1-1.9
		c0-6.6,0-13.1,0-19.7C44.1,20.4,44.1,20.4,44.1,20.3z"/>
	<path class="st0" d="M22.6,1.1c0,0.1,0,0.2,0,0.3c0,3,0,6,0,9c0,0.1,0,0.2,0,0.2c-1.6,0-3.2,0-4.8,0c0-0.1,0-0.2,0-0.2c0-3,0-6,0-9
		c0-0.1,0-0.2,0-0.2C19.4,1.1,21,1.1,22.6,1.1z"/>
	<path class="st0" d="M32.2,1.1c0,0.7,0,1.4,0,2.1c0,2.4,0,4.7,0,7.1c0,0.1,0,0.2,0,0.3c-1.6,0-3.2,0-4.8,0c0-0.1,0-0.2,0-0.3
		c0-3,0-6,0-9c0-0.1,0-0.2,0-0.3C29,1.1,30.6,1.1,32.2,1.1z"/>
	<path class="st0" d="M23.4,35.2c4-4,7.9-7.9,11.8-11.8c1.1,1.1,2.2,2.2,3.3,3.3c-5,5-10.1,10.1-15.1,15.1c-2.8-2.8-5.6-5.6-8.4-8.4
		c0,0,0,0,0-0.1c1-1,2-2,3-2.9c0.3-0.3,0.3-0.3,0.5,0c1.5,1.5,3.1,3,4.6,4.6C23.3,35,23.3,35.1,23.4,35.2z"/>
</g>
</svg>
