<?xml version="1.0" encoding="utf-8"?>
<!-- Generator: Adobe Illustrator 26.4.1, SVG Export Plug-In . SVG Version: 6.00 Build 0)  -->
<svg version="1.1" id="Layer_1" xmlns="http://www.w3.org/2000/svg" xmlns:xlink="http://www.w3.org/1999/xlink" x="0px" y="0px"
	 viewBox="0 0 50 50" style="enable-background:new 0 0 50 50;" xml:space="preserve">

<g>
	<path class="st0" d="M4,43c0-3.5,0-6.9,0-10.5c-0.7,0-1.3,0-2,0c0-0.9,0-1.7,0-2.6c10.1,0,20.1,0,30.2,0c0,0.8,0,1.7,0,2.6
		c-0.6,0-1.3,0-1.9,0c0,3.5,0,7,0,10.5C21.5,43,12.8,43,4,43z"/>
	<path class="st0" d="M32.8,22.1c5,0,10.1,0,15.2,0c0,0.9,0,1.7,0,2.6c-0.6,0-1.3,0-1.9,0c0,3.5,0,7,0,10.5c-2.2,0-4.4,0-6.6,0
		c0-1.7,0-3.4,0-5.2c0.6,0,1.3,0,1.9,0c0-1.8,0-3.5,0-5.2c-2.9,0-5.7,0-8.6,0C32.8,23.8,32.8,23,32.8,22.1z"/>
	<path class="st0" d="M40.1,28.7c-0.6,0-1.3,0-1.9,0c0,3.5,0,7,0,10.5c-2.2,0-4.4,0-6.6,0c0-1.7,0-3.4,0-5.2c0.6,0,1.3,0,1.9,0
		c0-1.8,0-3.5,0-5.2c-2.9,0-5.7,0-8.6,0c0-0.9,0-1.7,0-2.6c5.1,0,10.1,0,15.2,0C40.1,26.9,40.1,27.7,40.1,28.7z"/>
	<path class="st0" d="M10.6,28.6c0.1-1,0-2,0.2-2.9c0.4-1.7,1.8-2.6,3.8-2.4c0.3,0,0.6,0.3,1,0.5c0.5,0.3,1,0.8,1.6,0.8
		c0.5,0,1-0.5,1.5-0.8c2.4-1.5,4.9,0.6,4.9,2.7c0,0.7,0,1.4,0,2.1C19.3,28.6,15,28.6,10.6,28.6z"/>
	<path class="st0" d="M31.5,24.7c-0.3,0-0.4,0-0.5,0c-2.1,0-4.2,0-6.2,0c-0.2,0-0.4,0-0.5-0.2c-0.9-1.6-2.2-2.5-4.1-2.4
		c-0.1,0-0.1,0-0.2,0c0.3-0.3,0.6-0.5,0.8-0.8c0.3-0.4,0.6-0.8,0.8-1.3c0.3-0.5,0.6-0.7,1.2-0.4c0.6,0.3,1.2,0.6,1.8,1
		c0.3,0.2,0.6,0.2,0.9,0c0.4-0.2,0.8-0.4,1.2-0.7c1.9-1.3,4.3,0.2,4.6,1.9C31.5,22.7,31.5,23.7,31.5,24.7z"/>
	<path class="st0" d="M39.3,20.8c-0.4,0-0.8,0-1.1,0c-1.8,0-3.6,0-5.4,0c-0.3,0-0.5-0.1-0.7-0.4c-0.9-1.5-2.2-2.3-3.9-2.3
		c-0.1,0-0.2,0-0.3,0c0.1-0.1,0.2-0.2,0.3-0.3c0.4-0.6,0.8-1.2,1.3-1.8c0.1-0.2,0.2-0.5,0.3-0.6c0.3,0,0.7,0,1,0.1
		c0.6,0.3,1.3,0.7,1.9,1c0.2,0.1,0.4,0.1,0.7,0c0.4-0.3,0.9-0.5,1.4-0.8c2-1.2,4.6,0.4,4.7,2.7C39.4,19.3,39.3,20,39.3,20.8z"/>
	<path class="st0" d="M20.5,18.4c-0.1,2-1.7,3.4-3.6,3.2c-1.9-0.1-3.3-1.7-3.2-3.6c0.1-1.9,1.7-3.3,3.5-3.2
		C19.2,15,20.6,16.5,20.5,18.4z"/>
	<path class="st0" d="M25,17.7c-1.9,0-3.4-1.5-3.4-3.4c0-1.9,1.5-3.4,3.4-3.4c1.9,0,3.4,1.5,3.4,3.4C28.4,16.2,26.9,17.7,25,17.7z"
		/>
	<path class="st0" d="M36.3,10.4c0,1.9-1.5,3.4-3.4,3.4c-1.9,0-3.4-1.5-3.4-3.4C29.5,8.5,31,7,32.9,7C34.8,7,36.3,8.5,36.3,10.4z"/>
</g>
</svg>
