<?xml version="1.0" encoding="utf-8"?>
<!-- Generator: Adobe Illustrator 26.4.1, SVG Export Plug-In . SVG Version: 6.00 Build 0)  -->
<svg version="1.1" id="Layer_1" xmlns="http://www.w3.org/2000/svg" xmlns:xlink="http://www.w3.org/1999/xlink" x="0px" y="0px"
	 viewBox="0 0 50 50" style="enable-background:new 0 0 50 50;" xml:space="preserve">

<g>
	<path class="st0" d="M34.37,48.87c-0.91-0.22-1.75-0.57-2.48-1.19c-2.38-2-2.08-5.97,0.59-7.56c3.17-1.89,6.98,0.09,7.27,3.76
		c0.17,2.23-1.49,4.39-3.76,4.89c-0.1,0.02-0.2,0.07-0.3,0.1C35.24,48.87,34.8,48.87,34.37,48.87z M32.51,44.12
		c0,1.36,1.14,2.5,2.49,2.5c1.37,0,2.49-1.12,2.49-2.49c0-1.36-1.12-2.5-2.49-2.5C33.65,41.62,32.51,42.76,32.51,44.12z"/>
	<path class="st0" d="M19.17,48.87c-0.89-0.22-1.73-0.55-2.45-1.15c-2.4-2-2.16-5.9,0.49-7.57c2.85-1.79,6.51-0.27,7.23,3.02
		c0.55,2.49-1.17,5.09-3.7,5.6c-0.12,0.02-0.24,0.06-0.36,0.1C19.98,48.87,19.57,48.87,19.17,48.87z M22.27,44.12
		c0-1.37-1.12-2.5-2.49-2.5c-1.36,0-2.49,1.14-2.49,2.5c0,1.37,1.13,2.5,2.49,2.5C21.16,46.62,22.27,45.5,22.27,44.12z"/>
	<path class="st0" d="M10.88,26.1c-1.85,0-3.7,0-5.55,0c-1.75,0-2.68-0.93-2.68-2.67c0-1.66-0.01-3.33,0-4.99
		c0.01-3.41,2.26-6.06,5.63-6.62c0.38-0.06,0.77-0.06,1.16-0.07c1.37-0.01,2.74-0.05,4.1,0.01c1.8,0.08,3.55-0.19,5.3-0.59
		c2.75-0.63,5.52-1.19,8.29-1.77c1.13-0.24,2.02,0.19,2.71,1.05c0.68,0.86,0.8,1.82,0.4,2.85c-0.38,0.98-1.08,1.54-2.12,1.75
		c-2.57,0.53-5.13,1.1-7.69,1.64c-1.12,0.24-1.45,0.63-1.45,1.79c0,1.68,0,3.36,0,5.03c0,1.71-0.87,2.57-2.59,2.57
		C14.55,26.1,12.72,26.1,10.88,26.1z M6.67,23.82c0-0.22,0-0.39,0-0.56c0-1.6-0.01-3.2,0-4.8c0.01-0.78,0.59-1.25,1.24-1
		c0.48,0.18,0.62,0.57,0.61,1.05c0,1.6,0,3.2,0,4.8c0,0.17,0,0.33,0,0.51c2.76,0,5.47,0,8.21,0c0-1.87,0-3.7,0-5.53
		c0-1.96,1.11-3.32,3.04-3.73c2.61-0.56,5.22-1.12,7.83-1.68c0.44-0.1,0.69-0.41,0.6-0.77c-0.1-0.4-0.38-0.55-0.86-0.44
		c-2.6,0.55-5.19,1.12-7.79,1.64c-1.4,0.28-2.8,0.58-4.22,0.66c-1.97,0.11-3.95,0.02-5.92,0.03C6.77,14,4.9,15.86,4.89,18.51
		c-0.01,1.62,0,3.23,0,4.85c0,0.15,0.02,0.3,0.03,0.47C5.51,23.82,6.06,23.82,6.67,23.82z"/>
	<path class="st0" d="M32.59,1.84c3.19,0,6.37,0,9.56,0c1.64,0,2.78,0.82,3.17,2.28c0.1,0.35,0.13,0.74,0.13,1.1
		c0.01,5.83,0.01,11.65,0,17.48c0,1.69-0.83,2.87-2.29,3.27c-0.31,0.08-0.64,0.12-0.97,0.12c-3.25,0.01-6.5,0.01-9.74,0
		c-0.92,0-1.45-0.51-1.35-1.26c0.06-0.49,0.4-0.86,0.89-0.94c0.21-0.03,0.43-0.04,0.65-0.04c3.11,0,6.22,0,9.32,0
		c1.01,0,1.25-0.24,1.25-1.23c0-5.76,0-11.53,0-17.29c0-1.01-0.22-1.23-1.23-1.23c-6.37,0-12.74,0-19.11,0
		c-0.25,0-0.5-0.02-0.74-0.07c-0.5-0.1-0.86-0.57-0.85-1.08c0.01-0.52,0.4-0.99,0.93-1.07c0.21-0.03,0.43-0.03,0.65-0.03
		C26.09,1.84,29.34,1.84,32.59,1.84z"/>
	<path class="st0" d="M12.18,38.64c-2.59,0-4.75-2.15-4.75-4.73c0-2.59,2.16-4.73,4.75-4.73c2.6,0,4.75,2.15,4.75,4.74
		C16.92,36.49,14.77,38.64,12.18,38.64z M12.19,36.39c1.37-0.01,2.5-1.14,2.48-2.5c-0.02-1.37-1.14-2.48-2.52-2.47
		c-1.37,0.01-2.5,1.15-2.48,2.5C9.69,35.29,10.82,36.4,12.19,36.39z"/>
	<path class="st0" d="M7.7,5.88c0-2.58,2.15-4.75,4.74-4.75c2.58,0,4.75,2.15,4.76,4.73c0.01,2.57-2.16,4.75-4.74,4.76
		C9.88,10.63,7.7,8.46,7.7,5.88z M12.44,3.38c-1.35,0-2.5,1.15-2.5,2.5c0,1.35,1.15,2.5,2.5,2.49c1.36,0,2.5-1.15,2.5-2.5
		C14.94,4.52,13.79,3.37,12.44,3.38z"/>
	<path class="st0" d="M37.87,33.92c-0.01-2.6,2.12-4.75,4.73-4.75c2.59-0.01,4.72,2.1,4.74,4.69c0.02,2.61-2.09,4.76-4.71,4.77
		C40.03,38.65,37.89,36.53,37.87,33.92z M42.61,36.39c1.37,0,2.49-1.11,2.49-2.48c0-1.37-1.11-2.49-2.48-2.49
		c-1.38,0-2.49,1.1-2.49,2.48C40.12,35.27,41.23,36.39,42.61,36.39z"/>
	<path class="st0" d="M27.38,38.64c-2.6-0.01-4.76-2.2-4.72-4.77c0.04-2.6,2.16-4.7,4.75-4.7c2.63,0,4.76,2.16,4.74,4.79
		C32.11,36.54,29.96,38.65,27.38,38.64z M27.38,36.39c1.37,0.01,2.5-1.1,2.51-2.47c0.01-1.37-1.1-2.5-2.48-2.5
		c-1.37-0.01-2.49,1.09-2.51,2.47C24.89,35.25,26.01,36.38,27.38,36.39z"/>
</g>
</svg>
