<?xml version="1.0" encoding="utf-8"?>
<!-- Generator: Adobe Illustrator 26.4.1, SVG Export Plug-In . SVG Version: 6.00 Build 0)  -->
<svg version="1.1" id="Layer_1" xmlns="http://www.w3.org/2000/svg" xmlns:xlink="http://www.w3.org/1999/xlink" x="0px" y="0px"
	 viewBox="0 0 50 50" style="enable-background:new 0 0 50 50;" xml:space="preserve">

<g>
	<g>
		<path class="st0" d="M49.08,33.27c-0.48,0-0.97,0-1.5,0c0,4.02,0,8.01,0,12.02c-0.51,0-0.98,0-1.49,0c0-3.99,0-7.98,0-12.02
			c-0.53,0-1.01-0.01-1.49,0.01c-0.07,0-0.19,0.06-0.22,0.13c-0.53,1.1-1.45,1.45-2.6,1.37c-0.06,0-0.12,0.01-0.2,0.02
			c0,1.23,0,2.45,0,3.72c0.97,0,1.95,0,2.95,0c0,1.53,0,3.01,0,4.52c-0.47,0-0.94,0-1.45,0c0,1.76,0,3.49,0,5.25c-0.53,0-1,0-1.51,0
			c0-1.73,0-3.45,0-5.2c-2.52,0-5,0-7.53,0c0,1.73,0,3.46,0,5.21c-0.52,0-0.98,0-1.5,0c0-1.73,0-3.46,0-5.24c-0.53,0-1,0-1.5,0
			c0-1.52,0-2.99,0-4.51c0.98,0,1.96,0,2.96,0c0-1.28,0-2.51,0-3.78c-0.27,0-0.51,0.01-0.76,0c-0.87-0.04-1.53-0.44-1.94-1.2
			c-0.12-0.22-0.24-0.32-0.5-0.31c-0.41,0.02-0.81,0.01-1.27,0.01c0,4.01,0,8,0,12.01c-0.53,0-1,0-1.51,0c0-3.99,0-7.96,0-11.99
			c-0.51,0-0.98,0-1.49,0c0-1.53,0-3.01,0-4.52c1.48,0,2.95,0,4.44,0c0.04-0.2,0.08-0.38,0.12-0.56c0.25-0.99,1.09-1.7,2.1-1.71
			c3.06-0.02,6.12-0.02,9.17,0c1.2,0.01,2.02,0.85,2.22,2.25c1.49,0,2.99,0,4.49,0C49.08,30.26,49.08,31.77,49.08,33.27z
			 M37.79,33.27c1.44,0,2.89,0,4.33,0c0.67,0,0.94-0.27,0.94-0.94c0-1.13,0-2.26,0-3.39c0-0.67-0.27-0.94-0.94-0.94
			c-2.89,0-5.77,0-8.66,0c-0.68,0-0.94,0.26-0.94,0.94c0,1.13,0,2.26,0,3.39c0,0.67,0.27,0.94,0.94,0.94
			C34.9,33.28,36.34,33.27,37.79,33.27z M40.01,38.52c0-1.26,0-2.49,0-3.71c-1.51,0-2.99,0-4.46,0c0,1.25,0,2.47,0,3.71
			C37.04,38.52,38.51,38.52,40.01,38.52z M43.05,40.08c-3.52,0-7.01,0-10.5,0c0,0.5,0,0.98,0,1.44c3.52,0,7,0,10.5,0
			C43.05,41.03,43.05,40.58,43.05,40.08z M28.03,30.28c0,0.52,0,0.98,0,1.46c1,0,1.98,0,2.95,0c0-0.5,0-0.98,0-1.46
			C29.98,30.28,29.01,30.28,28.03,30.28z M47.55,31.75c0-0.52,0-0.98,0-1.46c-1,0-1.98,0-2.95,0c0,0.5,0,0.98,0,1.46
			C45.59,31.75,46.56,31.75,47.55,31.75z"/>
		<path class="st0" d="M44.53,24.22c-13.04,0-26.05,0-39.09,0c0-7.51,0-15,0-22.53c13.01,0,26.03,0,39.09,0
			C44.53,9.18,44.53,16.68,44.53,24.22z M32.54,19.71c0-1.02,0-2,0-2.97c2.52,0,4.99,0,7.52,0c0,1,0,1.98,0,2.95
			c1.03,0,2.01,0,2.98,0c0-5.52,0-11,0-16.5c-12.04,0-24.06,0-36.08,0c0,5.52,0,11.01,0,16.52C15.47,19.71,23.96,19.71,32.54,19.71z
			 M6.94,22.7c12.06,0,24.08,0,36.09,0c0-0.5,0-0.96,0-1.45c-12.04,0-24.06,0-36.09,0C6.94,21.74,6.94,22.21,6.94,22.7z M38.5,19.7
			c0-0.52,0-0.99,0-1.45c-1.51,0-2.99,0-4.45,0c0,0.5,0,0.97,0,1.45C35.54,19.7,37.01,19.7,38.5,19.7z"/>
		<path class="st0" d="M5.39,28.78c0.22-1.55,1.06-2.28,2.56-2.28c2.79,0,5.58,0,8.37,0c1.62,0,2.39,0.64,2.68,2.25
			c1.47,0,2.94,0,4.44,0c0,1.51,0,2.99,0,4.52c-0.47,0-0.94,0-1.45,0c0,4.03,0,8.01,0,12.02c-0.51,0-0.98,0-1.51,0
			c0-3.98,0-7.97,0-12.01c-0.52,0-0.98-0.01-1.45,0.01c-0.09,0-0.22,0.07-0.25,0.14c-0.54,1.09-1.46,1.44-2.61,1.36
			c-0.05,0-0.09,0.01-0.18,0.01c0,1.23,0,2.45,0,3.73c0.97,0,1.94,0,2.95,0c0,1.52,0,2.99,0,4.51c-0.46,0-0.94,0-1.47,0
			c0,1.78,0,3.51,0,5.27c-0.52,0-0.98,0-1.5,0c0-1.72,0-3.45,0-5.21c-2.53,0-5.02,0-7.53,0c0,1.73,0,3.45,0,5.2
			c-0.51,0-0.98,0-1.51,0c0-1.73,0-3.46,0-5.22c-0.52,0-0.98,0-1.48,0c0-1.51,0-2.99,0-4.51c0.97,0,1.93,0,2.94,0
			c0-1.26,0-2.49,0-3.79c-0.21,0-0.44,0-0.67,0c-0.89-0.02-1.58-0.4-2-1.18c-0.14-0.26-0.3-0.35-0.58-0.33
			c-0.39,0.02-0.78,0.01-1.22,0.01c0,4.02,0,8.01,0,12.02c-0.51,0-0.98,0-1.5,0c0-3.99,0-7.97,0-12.01c-0.53,0-1,0-1.5,0
			c0-1.52,0-2.99,0-4.5C2.4,28.78,3.88,28.78,5.39,28.78z M12.19,33.27c1.44,0,2.89,0,4.33,0c0.68,0,0.94-0.27,0.94-0.94
			c0-1.13,0-2.26,0-3.39c0-0.68-0.27-0.94-0.94-0.94c-2.89,0-5.77,0-8.66,0c-0.68,0-0.94,0.26-0.94,0.94c0,1.13,0,2.26,0,3.39
			c0,0.68,0.26,0.94,0.94,0.94C9.3,33.28,10.75,33.27,12.19,33.27z M14.43,34.81c-1.52,0-2.99,0-4.46,0c0,1.26,0,2.49,0,3.71
			c1.5,0,2.97,0,4.46,0C14.43,37.28,14.43,36.06,14.43,34.81z M6.94,41.52c3.52,0,7.01,0,10.48,0c0-0.51,0-0.98,0-1.45
			c-3.51,0-6.98,0-10.48,0C6.94,40.56,6.94,41.02,6.94,41.52z M2.43,31.74c1,0,1.97,0,2.96,0c0-0.5,0-0.98,0-1.45
			c-1.01,0-1.98,0-2.96,0C2.43,30.8,2.43,31.26,2.43,31.74z M21.94,31.75c0-0.53,0-1,0-1.46c-1,0-1.97,0-2.94,0c0,0.5,0,0.97,0,1.46
			C19.99,31.75,20.95,31.75,21.94,31.75z"/>
	</g>
</g>
</svg>
