<?xml version="1.0" encoding="utf-8"?>
<!-- Generator: Adobe Illustrator 26.4.1, SVG Export Plug-In . SVG Version: 6.00 Build 0)  -->
<svg version="1.1" id="Layer_1" xmlns="http://www.w3.org/2000/svg" xmlns:xlink="http://www.w3.org/1999/xlink" x="0px" y="0px"
	 viewBox="0 0 50 50" style="enable-background:new 0 0 50 50;" xml:space="preserve">

<g>
	<path class="st0" d="M42.54,48.1c-11.77,0-23.54,0-35.31,0c-0.18-0.08-0.37-0.17-0.55-0.24c-1.26-0.48-2.36-1.19-3.23-2.24
		c-0.64-0.77-1.07-1.66-1.4-2.59c-0.06-0.17-0.1-0.35-0.1-0.52c-0.01-2.62-0.02-5.24-0.02-7.87c0-0.15-0.02-0.3-0.02-0.44
		c0-7.37,0-14.74,0-22.11c0.01-0.17,0.02-0.34,0.03-0.51c0.03-0.63-0.01-1.27,0.1-1.88c0.5-2.77,3.29-5.39,6.31-5.43
		c2.43-0.03,4.86-0.04,7.28-0.06c0.04,0,0.09,0.01,0.11,0.02c0,1.53,0,3.05,0,4.6c-0.13,0-0.23,0-0.33,0
		c-1.27,0.02-2.55,0.03-3.82,0.06c-1.09,0.02-2.18,0.06-3.27,0.1C7.82,8.99,7.44,9.19,7.1,9.56c-0.42,0.46-0.57,0.99-0.57,1.57
		c-0.02,1.48-0.02,2.95-0.03,4.43c0,0.06,0.02,0.12,0.02,0.18c12.33,0,24.64,0,36.97,0c0-0.1,0-0.18,0-0.27c0-1.05,0-2.11,0-3.16
		c0-0.53-0.04-1.05-0.05-1.58c-0.02-0.72-0.78-1.73-1.66-1.76c-0.25-0.01-0.5-0.05-0.75-0.05c-2.07-0.04-4.13-0.07-6.2-0.11
		c-0.18,0-0.36,0-0.57,0c0-1.56,0-3.08,0-4.61c0.05,0,0.1-0.01,0.16-0.01c2.11,0,4.21-0.01,6.32,0.02c0.72,0.01,1.46,0.05,2.15,0.21
		c1.74,0.42,3.09,1.44,4.09,2.9c0.56,0.81,0.97,1.68,0.99,2.7c0.02,0.8,0.06,1.6,0.1,2.4c0,0.12,0.02,0.23,0.03,0.35
		c0,6.08,0,12.16,0,18.24c-0.01,0.14-0.02,0.28-0.02,0.42c-0.01,3.53-0.02,7.06-0.02,10.6c0,0.41-0.06,0.8-0.2,1.19
		c-0.81,2.26-2.31,3.82-4.59,4.61C43.02,47.93,42.78,48.02,42.54,48.1z M43.48,20.42c-12.34-0.02-24.64-0.08-37,0
		c0,0.47,0,0.91,0,1.34c-0.01,4.37-0.04,8.74-0.03,13.1c0,2.2,0.08,4.4,0.12,6.6c0.01,0.74,0.34,1.28,0.97,1.66
		c0.33,0.2,0.65,0.37,1.05,0.37c1.58,0.01,3.16,0.06,4.74,0.07c5.44,0.02,10.87,0.03,16.31,0.02c3.9-0.01,7.81-0.06,11.71-0.1
		c1.03-0.01,1.99-0.87,2.1-1.9c0.06-0.62,0.08-1.24,0.07-1.86c0-6.36-0.01-12.71-0.02-19.07C43.49,20.58,43.49,20.52,43.48,20.42z"
		/>
	<path class="st0" d="M22.69,1.9c0.01,0.08,0.03,0.17,0.03,0.25c0,2.91,0,5.82,0,8.74c0,0.08-0.01,0.15-0.01,0.24
		c-1.55,0-3.09,0-4.64,0c0-0.08-0.01-0.16-0.01-0.23c0-2.92,0-5.84,0-8.76c0-0.08,0.01-0.16,0.01-0.23
		C19.61,1.9,21.15,1.9,22.69,1.9z"/>
	<path class="st0" d="M31.93,1.9c0,0.69,0.01,1.38,0.01,2.07c0,2.28,0,4.57,0,6.85c0,0.09,0,0.19,0,0.3c-1.56,0-3.1,0-4.67,0
		c0-0.09,0-0.17,0-0.26c0-2.9,0-5.79,0-8.69c0-0.09,0.02-0.18,0.04-0.27C28.85,1.9,30.39,1.9,31.93,1.9z"/>
	<path class="st0" d="M23.44,34.88c3.86-3.86,7.67-7.67,11.45-11.46c1.09,1.09,2.17,2.17,3.23,3.23
		c-4.88,4.88-9.77,9.77-14.65,14.65c-2.7-2.7-5.42-5.42-8.15-8.15c0,0,0.02-0.04,0.05-0.06c0.97-0.95,1.94-1.91,2.91-2.85
		c0.25-0.24,0.26-0.24,0.52,0.01c1.5,1.47,2.99,2.94,4.48,4.42C23.34,34.71,23.38,34.8,23.44,34.88z"/>
</g>
</svg>
