<?xml version="1.0" encoding="utf-8"?>
<!-- Generator: Adobe Illustrator 26.4.1, SVG Export Plug-In . SVG Version: 6.00 Build 0)  -->
<svg version="1.1" id="Layer_1" xmlns="http://www.w3.org/2000/svg" xmlns:xlink="http://www.w3.org/1999/xlink" x="0px" y="0px"
	 viewBox="0 0 50 50" style="enable-background:new 0 0 50 50;" xml:space="preserve">

<g>
	<path class="st0" d="M29.9,48.6c-1.1-0.3-2.1-0.6-3.2-0.8c-5.6-1.4-11.2-2.7-16.8-4.1c-0.2-0.1-0.5-0.1-0.4-0.4c0-1.9,0-3.8,0-5.7
		c0-0.1,0-0.1,0-0.2c0.4,0,0.9,0,1.4,0c0,0.2,0,0.3,0,0.5c0,1.4,0,2.8,0,4.2c0,0.3,0.1,0.4,0.4,0.5c5.7,1.4,11.4,2.8,17.1,4.1
		c0.1,0,0.2,0,0.3,0.1c0-14.5,0-28.9,0-43.4c-1.1,0.3-2.1,0.5-3.2,0.8c-4.7,1.1-9.3,2.3-14,3.4c-0.4,0.1-0.6,0.3-0.6,0.7
		c0,7.9,0,15.8,0,23.7c0,0.2,0,0.4,0,0.6c-0.5,0-0.9,0-1.4,0c0-0.2,0-0.3,0-0.5c0-8.3,0-16.7,0-25c0-0.4,0.1-0.5,0.5-0.6
		C16.5,4.7,23,3.1,29.6,1.5c0.1,0,0.3-0.1,0.5-0.1c0,0.2,0,0.4,0,0.5c0,15.4,0,30.7,0,46.1c0,0.2,0,0.3,0,0.5
		C30,48.6,30,48.6,29.9,48.6z"/>
	<path class="st0" d="M31.4,7.7c0-0.5,0-0.9,0-1.4c3,0,6.1,0,9.1,0c0,12.4,0,24.9,0,37.3c-3,0-6.1,0-9.1,0c0-0.4,0-0.9,0-1.4
		c1.8,0,3.6,0,5.4,0c0-10,0-20,0-30c0.5,0,0.9,0,1.4,0c0,10,0,20,0,30c0.3,0,0.6,0,0.8,0c0-11.5,0-23,0-34.5
		C36.6,7.7,34,7.7,31.4,7.7z"/>
	<path class="st0" d="M22.9,27c0-1.2,0.9-2.1,2.1-2.1c1.2,0,2.2,1,2.1,2.1c0,1.2-1,2.1-2.1,2.1C23.8,29.1,22.9,28.1,22.9,27z
		 M25,26.3c-0.4,0-0.7,0.3-0.7,0.6c0,0.4,0.3,0.7,0.6,0.7c0.4,0,0.7-0.3,0.7-0.6C25.7,26.6,25.4,26.3,25,26.3z"/>
	<path class="st0" d="M38.3,9.2c0,0.5,0,0.9,0,1.4c-0.5,0-0.9,0-1.4,0c0-0.4,0-0.9,0-1.4C37.4,9.2,37.8,9.2,38.3,9.2z"/>
	<path class="st0" d="M10.8,34.2c0,0.5,0,0.9,0,1.4c-0.5,0-0.9,0-1.4,0c0-0.5,0-0.9,0-1.4C9.9,34.2,10.4,34.2,10.8,34.2z"/>
</g>
</svg>
