<?xml version="1.0" encoding="utf-8"?>
<!-- Generator: Adobe Illustrator 26.4.1, SVG Export Plug-In . SVG Version: 6.00 Build 0)  -->
<svg version="1.1" id="Layer_1" xmlns="http://www.w3.org/2000/svg" xmlns:xlink="http://www.w3.org/1999/xlink" x="0px" y="0px"
	 viewBox="0 0 50 50" style="enable-background:new 0 0 50 50;" xml:space="preserve">

<g>
	<path class="st0" d="M40.42,27.59c0.01,0.16,0.02,0.26,0.02,0.35c0,5.78,0,11.55,0,17.33c0,2.04-1.26,3.67-3.15,4.09
		c-0.34,0.08-0.69,0.1-1.04,0.1c-10.12,0.01-20.25,0.01-30.37,0c-2.13,0-3.77-1.35-4.13-3.38c-0.04-0.25-0.06-0.5-0.06-0.75
		c0-13.53,0-27.05,0-40.58c0-2.16,1.45-3.8,3.59-4.1c0.19-0.03,0.39-0.03,0.58-0.03c6.97,0,13.95,0,20.92,0.01
		c0.16,0,0.35,0.06,0.47,0.16c3.01,2.67,6.01,5.36,9.01,8.04c0.04,0.04,0.08,0.08,0.09,0.1c-0.72,0.73-1.44,1.45-2.18,2.19
		c-2.29-2.08-4.62-4.18-7-6.34c-0.01,0.16-0.02,0.25-0.02,0.34c0,1.94,0,3.87,0,5.81c0,1.3,0.84,2.14,2.13,2.15
		c0.88,0.01,1.75,0,2.63,0c0.1,0,0.21,0,0.31,0c0.03,0.04,0.06,0.08,0.08,0.13c-0.12,0.08-0.25,0.15-0.36,0.24
		c-0.88,0.86-1.76,1.73-2.65,2.59c-0.11,0.11-0.3,0.18-0.45,0.18c-1.15-0.01-2.27-0.22-3.27-0.82c-1.04-0.62-1.58-1.53-1.58-2.77
		c0.01-2.88,0-5.76,0.01-8.64c0-0.3-0.08-0.37-0.37-0.37c-5.53,0.01-11.07,0.01-16.6,0.01c-1.37,0-2.21,0.84-2.21,2.2
		c0,12.82,0,25.63,0,38.45c0,1.34,0.85,2.19,2.19,2.19c9.22,0,18.44,0,27.66,0c1.35,0,2.19-0.85,2.2-2.21c0-4.25,0-8.5,0-12.75
		c0-0.25,0.07-0.43,0.25-0.61c1.04-1.02,2.07-2.06,3.1-3.09C40.25,27.74,40.31,27.69,40.42,27.59z"/>
	<path class="st0" d="M19.91,37.28c0.45-1.19,0.87-2.32,1.3-3.44c0.98-2.58,1.95-5.16,2.93-7.74c0.05-0.14,0.14-0.28,0.25-0.39
		c5.15-5.16,10.31-10.32,15.47-15.47c1.73-1.73,4.16-1.72,5.91-0.01c0.44,0.43,0.87,0.86,1.3,1.3c1.65,1.66,1.66,4.17,0.01,5.83
		c-2.47,2.48-4.95,4.95-7.43,7.43c-2.69,2.69-5.38,5.38-8.07,8.06c-0.12,0.12-0.27,0.22-0.43,0.28c-3.65,1.36-7.3,2.72-10.96,4.08
		C20.13,37.22,20.05,37.24,19.91,37.28z M30.61,29.66c3.96-3.97,7.91-7.94,11.82-11.87c-0.99-1-2-2.01-2.99-3.01
		c-3.94,3.95-7.89,7.91-11.84,11.86C28.59,27.63,29.6,28.64,30.61,29.66z M26.01,28.1c-0.11,0.17-0.24,0.32-0.31,0.49
		c-0.53,1.39-1.05,2.78-1.58,4.17c-0.06,0.15-0.11,0.3-0.18,0.48c0.09-0.02,0.14-0.02,0.18-0.03c1.54-0.57,3.08-1.14,4.61-1.72
		c0.14-0.05,0.26-0.19,0.37-0.28C28.07,30.17,27.07,29.16,26.01,28.1z M43.86,16.46c0.34-0.34,0.7-0.69,1.04-1.05
		c0.55-0.59,0.55-1.41-0.01-2c-0.34-0.37-0.7-0.72-1.07-1.07c-0.44-0.42-1.12-0.57-1.61-0.23c-0.53,0.36-0.97,0.84-1.45,1.27
		C41.82,14.42,42.82,15.42,43.86,16.46z"/>
	<path class="st0" d="M8.79,23.17c0-0.94,0-1.86,0-2.8c4.13,0,8.26,0,12.41,0c0,0.92,0,1.85,0,2.8
		C17.07,23.17,12.95,23.17,8.79,23.17z"/>
	<path class="st0" d="M8.78,28.14c4.1,0,8.16,0,12.25,0c-0.22,0.59-0.44,1.15-0.65,1.71c-0.11,0.29-0.23,0.58-0.33,0.87
		c-0.06,0.18-0.16,0.23-0.34,0.23c-3.56,0-7.11,0-10.67,0c-0.12,0-0.27,0.04-0.27-0.17C8.78,29.91,8.78,29.04,8.78,28.14z"/>
	<path class="st0" d="M8.78,35.92c3.34,0,6.63,0,9.96,0c-0.14,0.39-0.27,0.76-0.41,1.12c-0.18,0.48-0.36,0.97-0.53,1.45
		c-0.06,0.17-0.14,0.25-0.33,0.25c-2.81-0.01-5.62,0-8.43-0.01c-0.12,0-0.27,0.03-0.27-0.17C8.78,37.69,8.78,36.82,8.78,35.92z"/>
	<path class="st0" d="M31.07,35.24c0,1.21,0,2.35,0,3.52c-3.21,0-6.4,0-9.59,0c-0.01-0.02-0.01-0.04-0.02-0.06
		C24.64,37.56,27.83,36.41,31.07,35.24z"/>
</g>
</svg>
