<?xml version="1.0" encoding="utf-8"?>
<!-- Generator: Adobe Illustrator 27.0.1, SVG Export Plug-In . SVG Version: 6.00 Build 0)  -->
<svg version="1.1" id="Layer_1" xmlns="http://www.w3.org/2000/svg" xmlns:xlink="http://www.w3.org/1999/xlink" x="0px" y="0px"
	 viewBox="0 0 326 240" style="enable-background:new 0 0 326 240;" xml:space="preserve">

<g>
	<g>
		<g>
			<g>
				<g>
					<path class="st0" d="M170.5,42.5c0.2,0.1-9.4,9.7-16,18.1c0,0-7.1-17.3-9.2-21.3C145.3,39.3,164.2,40.9,170.5,42.5z"/>
				</g>
				<g>
					
						<ellipse transform="matrix(0.8141 -0.5808 0.5808 0.8141 -1.3024 73.5047)" class="st0" cx="114.1" cy="38.8" rx="8.8" ry="4.7"/>
				</g>
				<g>
					
						<ellipse transform="matrix(0.1759 -0.9844 0.9844 0.1759 127.3683 188.6629)" class="st0" cx="176.4" cy="18.3" rx="3.7" ry="8"/>
				</g>
				<g>
					
						<ellipse transform="matrix(0.4385 -0.8987 0.8987 0.4385 70.7925 193.0437)" class="st0" cx="189.9" cy="39.9" rx="9.4" ry="13.4"/>
				</g>
				<g>
					
						<ellipse transform="matrix(0.6657 -0.7462 0.7462 0.6657 -6.1016 112.8459)" class="st0" cx="122.9" cy="63.2" rx="14.7" ry="11.3"/>
				</g>
				<g>
					
						<ellipse transform="matrix(0.3067 -0.9518 0.9518 0.3067 0.8536 195.4195)" class="st0" cx="134.6" cy="97.1" rx="10.8" ry="9.2"/>
				</g>
				<g>
					
						<ellipse transform="matrix(0.8307 -0.5567 0.5567 0.8307 -5.3047 125.7324)" class="st0" cx="204.1" cy="71.6" rx="7.7" ry="10"/>
				</g>
				<g>
					
						<ellipse transform="matrix(0.9837 -0.1797 0.1797 0.9837 -11.8 31.9106)" class="st0" cx="170.2" cy="81.1" rx="14.5" ry="15.3"/>
				</g>
				<g>
					
						<ellipse transform="matrix(0.9785 -0.2063 0.2063 0.9785 -2.004 30.5321)" class="st0" cx="145.4" cy="24.9" rx="12.9" ry="7.2"/>
				</g>
				<g>
					
						<ellipse transform="matrix(0.6538 -0.7566 0.7566 0.6538 -6.9706 92.243)" class="st0" cx="97.3" cy="53.7" rx="4.4" ry="2.3"/>
				</g>
				<g>
					<ellipse transform="matrix(0.8484 -0.5294 0.5294 0.8484 2.876 64.7033)" class="st0" cx="114.4" cy="27.3" rx="4" ry="1.6"/>
				</g>
				<g>
					
						<ellipse transform="matrix(0.979 -0.2039 0.2039 0.979 -0.1082 28.5433)" class="st0" cx="138.5" cy="14.8" rx="3.9" ry="1.2"/>
				</g>
				<g>
					
						<ellipse transform="matrix(2.980733e-02 -0.9996 0.9996 2.980733e-02 149.4574 175.7915)" class="st0" cx="165.3" cy="10.9" rx="1.1" ry="3.8"/>
				</g>
				<g>
					
						<ellipse transform="matrix(0.3541 -0.9352 0.9352 0.3541 107.1087 196.053)" class="st0" cx="195.5" cy="20.5" rx="1.5" ry="4"/>
				</g>
				<g>
					
						<ellipse transform="matrix(0.609 -0.7932 0.7932 0.609 51.8873 183.0517)" class="st0" cx="211.6" cy="38.9" rx="2.1" ry="4.4"/>
				</g>
				<g>
					
						<ellipse transform="matrix(0.8348 -0.5506 0.5506 0.8348 0.9029 131.9082)" class="st0" cx="220.2" cy="64.4" rx="3" ry="4.7"/>
				</g>
				<g>
					
						<ellipse transform="matrix(0.9315 -0.3638 0.3638 0.9315 -20.6946 82.2431)" class="st0" cx="208" cy="96.1" rx="4.3" ry="5.1"/>
				</g>
				<g>
					
						<ellipse transform="matrix(0.9699 -0.2437 0.2437 0.9699 -21.6695 47.387)" class="st0" cx="180.7" cy="111.3" rx="4.8" ry="5.5"/>
				</g>
				<g>
					
						<ellipse transform="matrix(0.9919 -0.1271 0.1271 0.9919 -13.957 19.7614)" class="st0" cx="147.9" cy="119.3" rx="4.9" ry="5.6"/>
				</g>
				<g>
					
						<ellipse transform="matrix(0.2591 -0.9659 0.9659 0.2591 -17.0658 186.1013)" class="st0" cx="112.8" cy="104.2" rx="5.4" ry="4.2"/>
				</g>
				<g>
					
						<ellipse transform="matrix(0.4357 -0.9001 0.9001 0.4357 -14.4102 133.8499)" class="st0" cx="99.5" cy="78.4" rx="5" ry="3.3"/>
				</g>
			</g>
			<g>
				<g>
					<path class="st0" d="M134.3,97.2l-21.4-60l0.3-0.2c0.3-0.2,33.5-18.3,62.9-19.4l0.2,0l0.1,0.1c0.2,0.2,19.9,23.6,26.5,52.6
						l0.1,0.4l-0.4,0.1c-0.4,0.1-39.9,11.2-68,26.2L134.3,97.2z M113.8,37.6l20.8,58.4c26.7-14.1,63.3-24.8,67.4-25.9
						c-6.3-27.4-24.5-49.7-26.1-51.7C148.3,19.6,117.3,35.8,113.8,37.6z"/>
				</g>
				<g>
					<path class="st0" d="M169.6,76.9l-0.4-0.2c-0.3-0.1-26.2-12.6-43.1-15.2l-0.5-0.1l1.2-2.6c0.2-0.4,10.8-23.4,19.1-33.4l0.1-0.2
						l0.2,0c0.3,0.1,27.4,6,40.9,13.7l0.4,0.2l-0.2,0.4c-0.1,0.2-12.3,21.3-17.6,36.9L169.6,76.9z M126.8,60.7
						c15.9,2.6,39.3,13.5,42.4,15c5-14.5,15.6-33.3,17.3-36.3c-12.9-7.2-37.6-12.8-40.1-13.4c-8.2,10.1-18.7,32.8-18.8,33.1l0,0
						L126.8,60.7z"/>
				</g>
				<g>
					<polygon class="st0" points="143.2,21.4 138.6,15.1 139.2,14.5 143.8,20.9 					"/>
				</g>
				<g>
					<path class="st0" d="M198.3,39.1l-0.1-0.8c5.8-0.5,12.2-0.2,12.3-0.2l0,0.8C210.4,38.9,204,38.6,198.3,39.1z"/>
				</g>
				<g>
					<path class="st0" d="M181.1,112.5c0-0.1-4.3-13.6-9.4-25.3l0.7-0.4c5.1,11.8,9.4,25.3,9.4,25.4L181.1,112.5z"/>
				</g>
				<g>
					<path class="st0" d="M98.7,80.4l-0.5-0.6c5.8-6.9,19.9-14.9,20.5-15.2l0.3,0.8C118.9,65.5,104.4,73.6,98.7,80.4z"/>
				</g>
			</g>
		</g>
	</g>
	<g>
		<g>
			<g>
				<path class="st1" d="M12.4,185v3.6h4.3v1.1h-4.3v4.5H11v-10.4h6.4v1.1H12.4z"/>
				<path class="st1" d="M29.4,189.1c0,0.8-0.1,1.5-0.4,2.1c-0.2,0.6-0.6,1.2-1,1.7c-0.4,0.5-1,0.8-1.6,1.1
					c-0.6,0.3-1.3,0.4-2.1,0.4c-0.8,0-1.5-0.1-2.1-0.4c-0.6-0.3-1.2-0.6-1.6-1.1c-0.4-0.5-0.8-1-1-1.7c-0.2-0.6-0.4-1.4-0.4-2.1
					c0-0.8,0.1-1.5,0.4-2.1c0.2-0.6,0.6-1.2,1-1.7c0.4-0.5,1-0.8,1.6-1.1c0.6-0.3,1.3-0.4,2.1-0.4c0.8,0,1.5,0.1,2.1,0.4
					c0.6,0.3,1.2,0.6,1.6,1.1c0.4,0.5,0.8,1,1,1.7C29.2,187.6,29.4,188.3,29.4,189.1z M27.9,189.1c0-0.6-0.1-1.2-0.3-1.7
					c-0.2-0.5-0.4-0.9-0.7-1.3c-0.3-0.3-0.7-0.6-1.2-0.8c-0.5-0.2-1-0.3-1.5-0.3c-0.6,0-1.1,0.1-1.5,0.3c-0.5,0.2-0.8,0.5-1.2,0.8
					s-0.6,0.8-0.7,1.3c-0.2,0.5-0.3,1.1-0.3,1.7c0,0.6,0.1,1.2,0.3,1.7c0.2,0.5,0.4,0.9,0.7,1.3c0.3,0.3,0.7,0.6,1.2,0.8
					c0.5,0.2,1,0.3,1.5,0.3c0.6,0,1.1-0.1,1.5-0.3c0.5-0.2,0.8-0.5,1.2-0.8c0.3-0.3,0.6-0.8,0.7-1.3
					C27.8,190.3,27.9,189.7,27.9,189.1z"/>
				<path class="st1" d="M39.7,194.3h-1.2c-0.3,0-0.4-0.1-0.6-0.3l-2.7-3.7c-0.1-0.1-0.2-0.2-0.3-0.2c-0.1-0.1-0.2-0.1-0.4-0.1h-1.1
					v4.3h-1.4v-10.4H35c0.7,0,1.2,0.1,1.7,0.2c0.5,0.1,0.9,0.3,1.2,0.6c0.3,0.3,0.5,0.6,0.7,0.9c0.1,0.4,0.2,0.8,0.2,1.2
					c0,0.4-0.1,0.7-0.2,1c-0.1,0.3-0.3,0.6-0.5,0.9c-0.2,0.3-0.5,0.5-0.8,0.6c-0.3,0.2-0.7,0.3-1.1,0.4c0.2,0.1,0.3,0.2,0.5,0.4
					L39.7,194.3z M34.9,188.9c0.4,0,0.8,0,1.1-0.1c0.3-0.1,0.6-0.2,0.8-0.4c0.2-0.2,0.4-0.4,0.5-0.6c0.1-0.3,0.2-0.5,0.2-0.8
					c0-0.6-0.2-1.1-0.6-1.4c-0.4-0.3-1-0.5-1.8-0.5h-1.5v3.9H34.9z"/>
				<path class="st1" d="M49.3,183.9c0.7,0,1.2,0.1,1.7,0.2c0.5,0.2,0.9,0.4,1.2,0.6s0.6,0.6,0.7,1c0.2,0.4,0.2,0.8,0.2,1.3
					c0,0.5-0.1,0.9-0.3,1.3c-0.2,0.4-0.4,0.7-0.7,1c-0.3,0.3-0.7,0.5-1.2,0.7c-0.5,0.2-1,0.2-1.7,0.2h-1.7v3.9h-1.4v-10.4H49.3z
					 M49.3,189.3c0.4,0,0.8-0.1,1.1-0.2c0.3-0.1,0.6-0.3,0.8-0.4c0.2-0.2,0.4-0.4,0.5-0.7c0.1-0.3,0.2-0.6,0.2-0.9
					c0-0.7-0.2-1.2-0.6-1.5c-0.4-0.4-1-0.6-1.9-0.6h-1.7v4.3H49.3z"/>
				<path class="st1" d="M63.2,194.3H62c-0.3,0-0.4-0.1-0.6-0.3l-2.7-3.7c-0.1-0.1-0.2-0.2-0.3-0.2c-0.1-0.1-0.2-0.1-0.4-0.1H57v4.3
					h-1.4v-10.4h2.9c0.7,0,1.2,0.1,1.7,0.2c0.5,0.1,0.9,0.3,1.2,0.6c0.3,0.3,0.5,0.6,0.7,0.9c0.1,0.4,0.2,0.8,0.2,1.2
					c0,0.4-0.1,0.7-0.2,1c-0.1,0.3-0.3,0.6-0.5,0.9c-0.2,0.3-0.5,0.5-0.8,0.6c-0.3,0.2-0.7,0.3-1.1,0.4c0.2,0.1,0.3,0.2,0.5,0.4
					L63.2,194.3z M58.4,188.9c0.4,0,0.8,0,1.1-0.1c0.3-0.1,0.6-0.2,0.8-0.4c0.2-0.2,0.4-0.4,0.5-0.6c0.1-0.3,0.2-0.5,0.2-0.8
					c0-0.6-0.2-1.1-0.6-1.4c-0.4-0.3-1-0.5-1.8-0.5H57v3.9H58.4z"/>
				<path class="st1" d="M74.8,189.1c0,0.8-0.1,1.5-0.4,2.1c-0.2,0.6-0.6,1.2-1,1.7c-0.4,0.5-1,0.8-1.6,1.1
					c-0.6,0.3-1.3,0.4-2.1,0.4s-1.5-0.1-2.1-0.4c-0.6-0.3-1.2-0.6-1.6-1.1s-0.8-1-1-1.7c-0.2-0.6-0.4-1.4-0.4-2.1
					c0-0.8,0.1-1.5,0.4-2.1c0.2-0.6,0.6-1.2,1-1.7s1-0.8,1.6-1.1c0.6-0.3,1.3-0.4,2.1-0.4s1.5,0.1,2.1,0.4c0.6,0.3,1.2,0.6,1.6,1.1
					c0.4,0.5,0.8,1,1,1.7C74.7,187.6,74.8,188.3,74.8,189.1z M73.4,189.1c0-0.6-0.1-1.2-0.3-1.7c-0.2-0.5-0.4-0.9-0.7-1.3
					c-0.3-0.3-0.7-0.6-1.2-0.8c-0.5-0.2-1-0.3-1.5-0.3c-0.6,0-1.1,0.1-1.5,0.3c-0.5,0.2-0.8,0.5-1.2,0.8c-0.3,0.3-0.6,0.8-0.7,1.3
					c-0.2,0.5-0.3,1.1-0.3,1.7c0,0.6,0.1,1.2,0.3,1.7c0.2,0.5,0.4,0.9,0.7,1.3c0.3,0.3,0.7,0.6,1.2,0.8c0.5,0.2,1,0.3,1.5,0.3
					c0.6,0,1.1-0.1,1.5-0.3c0.5-0.2,0.8-0.5,1.2-0.8c0.3-0.3,0.6-0.8,0.7-1.3C73.3,190.3,73.4,189.7,73.4,189.1z"/>
				<path class="st1" d="M85.9,189.3v4c-0.5,0.4-1.1,0.7-1.7,0.8c-0.6,0.2-1.2,0.3-1.9,0.3c-0.8,0-1.6-0.1-2.3-0.4
					c-0.7-0.3-1.2-0.6-1.7-1.1c-0.5-0.5-0.8-1-1.1-1.7c-0.3-0.7-0.4-1.4-0.4-2.1c0-0.8,0.1-1.5,0.4-2.2c0.2-0.7,0.6-1.2,1.1-1.7
					c0.5-0.5,1-0.8,1.7-1.1c0.7-0.3,1.4-0.4,2.2-0.4c0.4,0,0.8,0,1.1,0.1c0.4,0.1,0.7,0.1,1,0.3c0.3,0.1,0.6,0.3,0.8,0.4
					c0.3,0.2,0.5,0.3,0.7,0.5l-0.4,0.6c-0.1,0.1-0.1,0.2-0.2,0.2c-0.1,0-0.2,0-0.3-0.1c-0.1-0.1-0.2-0.1-0.4-0.2
					c-0.1-0.1-0.3-0.2-0.5-0.3c-0.2-0.1-0.5-0.2-0.8-0.2s-0.6-0.1-1-0.1c-0.6,0-1.1,0.1-1.6,0.3s-0.9,0.5-1.2,0.8
					c-0.3,0.4-0.6,0.8-0.8,1.3c-0.2,0.5-0.3,1.1-0.3,1.7c0,0.7,0.1,1.2,0.3,1.7c0.2,0.5,0.4,0.9,0.8,1.3c0.3,0.4,0.8,0.6,1.3,0.8
					c0.5,0.2,1,0.3,1.7,0.3c0.5,0,0.9-0.1,1.3-0.2c0.4-0.1,0.7-0.3,1.1-0.5v-2.3H83c-0.1,0-0.2,0-0.2-0.1c-0.1-0.1-0.1-0.1-0.1-0.2
					v-0.8H85.9z"/>
				<path class="st1" d="M96.4,194.3h-1.2c-0.3,0-0.4-0.1-0.6-0.3l-2.7-3.7c-0.1-0.1-0.2-0.2-0.3-0.2c-0.1-0.1-0.2-0.1-0.4-0.1h-1.1
					v4.3h-1.4v-10.4h2.9c0.7,0,1.2,0.1,1.7,0.2c0.5,0.1,0.9,0.3,1.2,0.6c0.3,0.3,0.5,0.6,0.7,0.9c0.1,0.4,0.2,0.8,0.2,1.2
					c0,0.4-0.1,0.7-0.2,1c-0.1,0.3-0.3,0.6-0.5,0.9c-0.2,0.3-0.5,0.5-0.8,0.6c-0.3,0.2-0.7,0.3-1.1,0.4c0.2,0.1,0.3,0.2,0.5,0.4
					L96.4,194.3z M91.6,188.9c0.4,0,0.8,0,1.1-0.1c0.3-0.1,0.6-0.2,0.8-0.4c0.2-0.2,0.4-0.4,0.5-0.6c0.1-0.3,0.2-0.5,0.2-0.8
					c0-0.6-0.2-1.1-0.6-1.4c-0.4-0.3-1-0.5-1.8-0.5h-1.5v3.9H91.6z"/>
				<path class="st1" d="M106.9,194.3h-1.1c-0.1,0-0.2,0-0.3-0.1c-0.1-0.1-0.1-0.1-0.2-0.2l-1-2.5h-4.6l-1,2.5
					c0,0.1-0.1,0.2-0.2,0.2c-0.1,0.1-0.2,0.1-0.3,0.1h-1.1l4.1-10.4h1.4L106.9,194.3z M104,190.4l-1.6-4.2c0-0.1-0.1-0.3-0.2-0.4
					c-0.1-0.2-0.1-0.3-0.2-0.5c-0.1,0.4-0.2,0.7-0.3,1l-1.6,4.2H104z"/>
				<path class="st1" d="M119.7,183.9v10.4h-1.2v-7.6c0-0.1,0-0.2,0-0.3c0-0.1,0-0.2,0-0.4l-3.6,6.5c-0.1,0.2-0.3,0.3-0.5,0.3h-0.2
					c-0.2,0-0.4-0.1-0.5-0.3l-3.6-6.5c0,0.3,0,0.5,0,0.7v7.6H109v-10.4h1c0.1,0,0.2,0,0.3,0c0.1,0,0.1,0.1,0.2,0.2l3.6,6.4
					c0.1,0.1,0.1,0.2,0.2,0.4c0.1,0.1,0.1,0.3,0.2,0.4c0-0.1,0.1-0.3,0.2-0.4c0.1-0.1,0.1-0.2,0.2-0.4l3.5-6.4
					c0.1-0.1,0.1-0.2,0.2-0.2c0.1,0,0.2,0,0.3,0H119.7z"/>
				<path class="st1" d="M124.5,194.3h-1.4v-10.4h1.4V194.3z"/>
				<path class="st1" d="M136.2,183.9v10.4h-0.7c-0.1,0-0.2,0-0.3-0.1c-0.1,0-0.1-0.1-0.2-0.2l-6-7.8c0,0.1,0,0.2,0,0.4
					c0,0.1,0,0.2,0,0.3v7.4h-1.2v-10.4h0.7c0.1,0,0.1,0,0.2,0c0,0,0.1,0,0.1,0c0,0,0.1,0,0.1,0.1c0,0,0.1,0.1,0.1,0.1l6,7.8
					c0-0.1,0-0.2,0-0.4c0-0.1,0-0.2,0-0.3v-7.3H136.2z"/>
				<path class="st1" d="M148,189.3v4c-0.5,0.4-1.1,0.7-1.7,0.8c-0.6,0.2-1.2,0.3-1.9,0.3c-0.8,0-1.6-0.1-2.3-0.4
					c-0.7-0.3-1.2-0.6-1.7-1.1c-0.5-0.5-0.8-1-1.1-1.7c-0.3-0.7-0.4-1.4-0.4-2.1c0-0.8,0.1-1.5,0.4-2.2c0.2-0.7,0.6-1.2,1.1-1.7
					c0.5-0.5,1-0.8,1.7-1.1c0.7-0.3,1.4-0.4,2.2-0.4c0.4,0,0.8,0,1.1,0.1c0.4,0.1,0.7,0.1,1,0.3c0.3,0.1,0.6,0.3,0.8,0.4
					c0.3,0.2,0.5,0.3,0.7,0.5l-0.4,0.6c-0.1,0.1-0.1,0.2-0.2,0.2s-0.2,0-0.3-0.1c-0.1-0.1-0.2-0.1-0.4-0.2c-0.1-0.1-0.3-0.2-0.5-0.3
					c-0.2-0.1-0.5-0.2-0.8-0.2c-0.3-0.1-0.6-0.1-1-0.1c-0.6,0-1.1,0.1-1.6,0.3c-0.5,0.2-0.9,0.5-1.2,0.8c-0.3,0.4-0.6,0.8-0.8,1.3
					c-0.2,0.5-0.3,1.1-0.3,1.7c0,0.7,0.1,1.2,0.3,1.7c0.2,0.5,0.4,0.9,0.8,1.3c0.3,0.4,0.8,0.6,1.3,0.8c0.5,0.2,1,0.3,1.7,0.3
					c0.5,0,0.9-0.1,1.3-0.2c0.4-0.1,0.7-0.3,1.1-0.5v-2.3h-1.6c-0.1,0-0.2,0-0.2-0.1c-0.1-0.1-0.1-0.1-0.1-0.2v-0.8H148z"/>
				<path class="st1" d="M163.6,194.3h-1.1c-0.1,0-0.2,0-0.3-0.1c-0.1-0.1-0.1-0.1-0.2-0.2l-1-2.5h-4.6l-1,2.5
					c0,0.1-0.1,0.2-0.2,0.2c-0.1,0.1-0.2,0.1-0.3,0.1h-1.1l4.1-10.4h1.4L163.6,194.3z M160.7,190.4l-1.6-4.2c0-0.1-0.1-0.3-0.2-0.4
					c-0.1-0.2-0.1-0.3-0.2-0.5c-0.1,0.4-0.2,0.7-0.3,1l-1.6,4.2H160.7z"/>
				<path class="st1" d="M174.1,183.9v10.4h-0.7c-0.1,0-0.2,0-0.3-0.1c-0.1,0-0.1-0.1-0.2-0.2l-6-7.8c0,0.1,0,0.2,0,0.4
					c0,0.1,0,0.2,0,0.3v7.4h-1.2v-10.4h0.7c0.1,0,0.1,0,0.2,0c0,0,0.1,0,0.1,0c0,0,0.1,0,0.1,0.1c0,0,0.1,0.1,0.1,0.1l6,7.8
					c0-0.1,0-0.2,0-0.4c0-0.1,0-0.2,0-0.3v-7.3H174.1z"/>
				<path class="st1" d="M186.4,189.1c0,0.8-0.1,1.5-0.4,2.1c-0.2,0.6-0.6,1.2-1,1.6c-0.4,0.5-1,0.8-1.6,1.1s-1.3,0.4-2.1,0.4h-3.9
					v-10.4h3.9c0.8,0,1.5,0.1,2.1,0.4c0.6,0.2,1.2,0.6,1.6,1.1c0.4,0.5,0.8,1,1,1.6C186.2,187.6,186.4,188.3,186.4,189.1z
					 M184.9,189.1c0-0.6-0.1-1.2-0.3-1.7c-0.2-0.5-0.4-0.9-0.7-1.3c-0.3-0.3-0.7-0.6-1.2-0.8c-0.5-0.2-1-0.3-1.5-0.3h-2.5v8.1h2.5
					c0.6,0,1.1-0.1,1.5-0.3c0.5-0.2,0.8-0.4,1.2-0.8c0.3-0.3,0.6-0.8,0.7-1.3C184.8,190.3,184.9,189.7,184.9,189.1z"/>
				<path class="st1" d="M204.3,183.9v10.4H203v-7.6c0-0.1,0-0.2,0-0.3c0-0.1,0-0.2,0-0.4l-3.6,6.5c-0.1,0.2-0.3,0.3-0.5,0.3h-0.2
					c-0.2,0-0.4-0.1-0.5-0.3l-3.6-6.5c0,0.3,0,0.5,0,0.7v7.6h-1.2v-10.4h1c0.1,0,0.2,0,0.3,0c0.1,0,0.1,0.1,0.2,0.2l3.6,6.4
					c0.1,0.1,0.1,0.2,0.2,0.4c0.1,0.1,0.1,0.3,0.2,0.4c0-0.1,0.1-0.3,0.2-0.4c0.1-0.1,0.1-0.2,0.2-0.4l3.5-6.4
					c0.1-0.1,0.1-0.2,0.2-0.2c0.1,0,0.2,0,0.3,0H204.3z"/>
				<path class="st1" d="M214,193.1l0,1.1h-6.4v-10.4h6.4v1.1h-5v3.4h4v1.1h-4v3.5H214z"/>
				<path class="st1" d="M225.6,189.1c0,0.8-0.1,1.5-0.4,2.1c-0.2,0.6-0.6,1.2-1,1.6c-0.4,0.5-1,0.8-1.6,1.1s-1.3,0.4-2.1,0.4h-3.9
					v-10.4h3.9c0.8,0,1.5,0.1,2.1,0.4c0.6,0.2,1.2,0.6,1.6,1.1c0.4,0.5,0.8,1,1,1.6C225.5,187.6,225.6,188.3,225.6,189.1z
					 M224.2,189.1c0-0.6-0.1-1.2-0.3-1.7c-0.2-0.5-0.4-0.9-0.7-1.3c-0.3-0.3-0.7-0.6-1.2-0.8c-0.5-0.2-1-0.3-1.5-0.3H218v8.1h2.5
					c0.6,0,1.1-0.1,1.5-0.3c0.5-0.2,0.8-0.4,1.2-0.8c0.3-0.3,0.6-0.8,0.7-1.3C224.1,190.3,224.2,189.7,224.2,189.1z"/>
				<path class="st1" d="M229.7,194.3h-1.4v-10.4h1.4V194.3z"/>
				<path class="st1" d="M241.5,194.3h-1.1c-0.1,0-0.2,0-0.3-0.1s-0.1-0.1-0.2-0.2l-1-2.5h-4.6l-1,2.5c0,0.1-0.1,0.2-0.2,0.2
					c-0.1,0.1-0.2,0.1-0.3,0.1h-1.1l4.1-10.4h1.4L241.5,194.3z M238.6,190.4l-1.6-4.2c0-0.1-0.1-0.3-0.2-0.4
					c-0.1-0.2-0.1-0.3-0.2-0.5c-0.1,0.4-0.2,0.7-0.3,1l-1.6,4.2H238.6z"/>
				<path class="st1" d="M252.7,185.5c0,0.1-0.1,0.1-0.1,0.2c-0.1,0-0.1,0.1-0.2,0.1c-0.1,0-0.2,0-0.3-0.1c-0.1-0.1-0.2-0.2-0.4-0.3
					s-0.4-0.2-0.6-0.3c-0.2-0.1-0.5-0.1-0.8-0.1c-0.3,0-0.6,0-0.8,0.1c-0.2,0.1-0.4,0.2-0.6,0.3c-0.2,0.1-0.3,0.3-0.4,0.5
					c-0.1,0.2-0.1,0.4-0.1,0.6c0,0.3,0.1,0.5,0.2,0.7c0.1,0.2,0.3,0.4,0.6,0.5c0.2,0.1,0.5,0.3,0.8,0.4c0.3,0.1,0.6,0.2,0.9,0.3
					c0.3,0.1,0.6,0.2,0.9,0.4c0.3,0.1,0.6,0.3,0.8,0.5c0.2,0.2,0.4,0.5,0.6,0.7c0.1,0.3,0.2,0.7,0.2,1.1c0,0.5-0.1,0.9-0.2,1.3
					c-0.2,0.4-0.4,0.7-0.7,1c-0.3,0.3-0.7,0.5-1.1,0.7c-0.4,0.2-0.9,0.3-1.5,0.3c-0.7,0-1.3-0.1-1.8-0.4c-0.5-0.2-1-0.6-1.4-1
					l0.4-0.7c0-0.1,0.1-0.1,0.1-0.1c0.1,0,0.1-0.1,0.2-0.1c0.1,0,0.1,0,0.2,0.1c0.1,0.1,0.2,0.1,0.3,0.2c0.1,0.1,0.2,0.2,0.3,0.3
					c0.1,0.1,0.3,0.2,0.4,0.3c0.2,0.1,0.4,0.1,0.6,0.2c0.2,0.1,0.4,0.1,0.7,0.1c0.3,0,0.6,0,0.9-0.1c0.3-0.1,0.5-0.2,0.7-0.4
					c0.2-0.2,0.3-0.4,0.4-0.6c0.1-0.2,0.1-0.5,0.1-0.8c0-0.3-0.1-0.6-0.2-0.8c-0.1-0.2-0.3-0.4-0.6-0.5c-0.2-0.1-0.5-0.2-0.8-0.3
					c-0.3-0.1-0.6-0.2-0.9-0.3c-0.3-0.1-0.6-0.2-0.9-0.3c-0.3-0.1-0.6-0.3-0.8-0.5c-0.2-0.2-0.4-0.5-0.6-0.8
					c-0.1-0.3-0.2-0.7-0.2-1.2c0-0.4,0.1-0.7,0.2-1.1c0.1-0.3,0.3-0.6,0.6-0.9c0.3-0.3,0.6-0.5,1-0.6c0.4-0.2,0.9-0.2,1.4-0.2
					c0.6,0,1.1,0.1,1.6,0.3c0.5,0.2,0.9,0.4,1.3,0.8L252.7,185.5z"/>
				<path class="st1" d="M262.4,193.1l0,1.1H256v-10.4h6.4v1.1h-5v3.4h4v1.1h-4v3.5H262.4z"/>
				<path class="st1" d="M272.7,194.3h-1.2c-0.3,0-0.4-0.1-0.6-0.3l-2.7-3.7c-0.1-0.1-0.2-0.2-0.3-0.2c-0.1-0.1-0.2-0.1-0.4-0.1
					h-1.1v4.3H265v-10.4h2.9c0.7,0,1.2,0.1,1.7,0.2c0.5,0.1,0.9,0.3,1.2,0.6c0.3,0.3,0.5,0.6,0.7,0.9c0.1,0.4,0.2,0.8,0.2,1.2
					c0,0.4-0.1,0.7-0.2,1c-0.1,0.3-0.3,0.6-0.5,0.9c-0.2,0.3-0.5,0.5-0.8,0.6c-0.3,0.2-0.7,0.3-1.1,0.4c0.2,0.1,0.3,0.2,0.5,0.4
					L272.7,194.3z M267.9,188.9c0.4,0,0.8,0,1.1-0.1c0.3-0.1,0.6-0.2,0.8-0.4c0.2-0.2,0.4-0.4,0.5-0.6c0.1-0.3,0.2-0.5,0.2-0.8
					c0-0.6-0.2-1.1-0.6-1.4c-0.4-0.3-1-0.5-1.8-0.5h-1.5v3.9H267.9z"/>
				<path class="st1" d="M282.9,183.9l-4.2,10.4h-1.3l-4.2-10.4h1.1c0.1,0,0.2,0,0.3,0.1c0.1,0.1,0.1,0.1,0.2,0.2l2.9,7.3
					c0.1,0.2,0.1,0.3,0.2,0.5c0.1,0.2,0.1,0.4,0.2,0.6c0-0.2,0.1-0.4,0.2-0.6c0.1-0.2,0.1-0.4,0.2-0.5l2.9-7.3
					c0-0.1,0.1-0.2,0.2-0.2c0.1-0.1,0.2-0.1,0.3-0.1H282.9z"/>
				<path class="st1" d="M286.4,194.3H285v-10.4h1.4V194.3z"/>
				<path class="st1" d="M297,192.1c0.1,0,0.1,0,0.2,0.1l0.6,0.6c-0.4,0.5-0.9,0.9-1.5,1.1c-0.6,0.3-1.3,0.4-2.2,0.4
					c-0.7,0-1.4-0.1-2-0.4c-0.6-0.3-1.1-0.6-1.6-1.1c-0.4-0.5-0.8-1-1-1.7c-0.2-0.7-0.4-1.4-0.4-2.1c0-0.8,0.1-1.5,0.4-2.1
					c0.2-0.7,0.6-1.2,1-1.7c0.4-0.5,1-0.8,1.6-1.1c0.6-0.3,1.3-0.4,2.1-0.4c0.7,0,1.4,0.1,2,0.4c0.6,0.2,1.1,0.6,1.5,1l-0.5,0.6
					c0,0-0.1,0.1-0.1,0.1s-0.1,0-0.2,0c-0.1,0-0.2,0-0.3-0.1c-0.1-0.1-0.3-0.2-0.5-0.3c-0.2-0.1-0.5-0.2-0.8-0.3
					c-0.3-0.1-0.7-0.1-1.1-0.1c-0.5,0-1,0.1-1.5,0.3c-0.4,0.2-0.8,0.5-1.1,0.8c-0.3,0.4-0.6,0.8-0.7,1.3c-0.2,0.5-0.3,1.1-0.3,1.7
					c0,0.6,0.1,1.2,0.3,1.7c0.2,0.5,0.4,0.9,0.8,1.3c0.3,0.3,0.7,0.6,1.1,0.8c0.4,0.2,0.9,0.3,1.4,0.3c0.3,0,0.6,0,0.8-0.1
					c0.2,0,0.5-0.1,0.7-0.2c0.2-0.1,0.4-0.2,0.6-0.3c0.2-0.1,0.4-0.3,0.5-0.4C296.8,192.2,296.9,192.1,297,192.1z"/>
				<path class="st1" d="M306.4,193.1l0,1.1h-6.4v-10.4h6.4v1.1h-5v3.4h4v1.1h-4v3.5H306.4z"/>
				<path class="st1" d="M314.4,185.5c0,0.1-0.1,0.1-0.1,0.2c-0.1,0-0.1,0.1-0.2,0.1c-0.1,0-0.2,0-0.3-0.1c-0.1-0.1-0.2-0.2-0.4-0.3
					c-0.2-0.1-0.4-0.2-0.6-0.3c-0.2-0.1-0.5-0.1-0.8-0.1c-0.3,0-0.6,0-0.8,0.1c-0.2,0.1-0.4,0.2-0.6,0.3c-0.2,0.1-0.3,0.3-0.4,0.5
					c-0.1,0.2-0.1,0.4-0.1,0.6c0,0.3,0.1,0.5,0.2,0.7c0.1,0.2,0.3,0.4,0.6,0.5c0.2,0.1,0.5,0.3,0.8,0.4c0.3,0.1,0.6,0.2,0.9,0.3
					c0.3,0.1,0.6,0.2,0.9,0.4s0.6,0.3,0.8,0.5c0.2,0.2,0.4,0.5,0.6,0.7c0.1,0.3,0.2,0.7,0.2,1.1c0,0.5-0.1,0.9-0.2,1.3
					c-0.2,0.4-0.4,0.7-0.7,1c-0.3,0.3-0.7,0.5-1.1,0.7c-0.4,0.2-0.9,0.3-1.5,0.3c-0.7,0-1.3-0.1-1.8-0.4c-0.5-0.2-1-0.6-1.4-1
					l0.4-0.7c0-0.1,0.1-0.1,0.1-0.1c0.1,0,0.1-0.1,0.2-0.1c0.1,0,0.1,0,0.2,0.1c0.1,0.1,0.2,0.1,0.3,0.2c0.1,0.1,0.2,0.2,0.3,0.3
					s0.3,0.2,0.4,0.3c0.2,0.1,0.4,0.1,0.6,0.2c0.2,0.1,0.5,0.1,0.7,0.1c0.3,0,0.6,0,0.9-0.1c0.3-0.1,0.5-0.2,0.7-0.4
					c0.2-0.2,0.3-0.4,0.4-0.6c0.1-0.2,0.1-0.5,0.1-0.8c0-0.3-0.1-0.6-0.2-0.8c-0.1-0.2-0.3-0.4-0.6-0.5c-0.2-0.1-0.5-0.2-0.8-0.3
					c-0.3-0.1-0.6-0.2-0.9-0.3c-0.3-0.1-0.6-0.2-0.9-0.3c-0.3-0.1-0.6-0.3-0.8-0.5c-0.2-0.2-0.4-0.5-0.6-0.8
					c-0.1-0.3-0.2-0.7-0.2-1.2c0-0.4,0.1-0.7,0.2-1.1c0.1-0.3,0.3-0.6,0.6-0.9c0.3-0.3,0.6-0.5,1-0.6c0.4-0.2,0.9-0.2,1.4-0.2
					c0.6,0,1.1,0.1,1.6,0.3c0.5,0.2,0.9,0.4,1.3,0.8L314.4,185.5z"/>
			</g>
			<g>
				<path class="st1" d="M40.6,147.7V174h-5.4v-15.1c0-0.3,0-0.7,0-1.1c0-0.4,0.1-0.8,0.1-1.2l-7,13.5c-0.2,0.4-0.5,0.7-0.9,1
					c-0.4,0.2-0.8,0.3-1.3,0.3h-0.8c-0.5,0-0.9-0.1-1.3-0.3c-0.4-0.2-0.7-0.5-0.9-1l-7-13.6c0,0.4,0.1,0.9,0.1,1.3
					c0,0.4,0,0.8,0,1.1V174H11v-26.3h4.7c0.3,0,0.5,0,0.7,0c0.2,0,0.4,0,0.5,0.1c0.2,0.1,0.3,0.2,0.4,0.3c0.1,0.1,0.2,0.3,0.4,0.5
					l6.8,13.3c0.2,0.5,0.5,0.9,0.7,1.4c0.2,0.5,0.4,1,0.6,1.5c0.2-0.5,0.4-1,0.6-1.6c0.2-0.5,0.5-1,0.7-1.4l6.8-13.3
					c0.1-0.2,0.2-0.4,0.4-0.5s0.3-0.2,0.4-0.3c0.2-0.1,0.3-0.1,0.5-0.1c0.2,0,0.4,0,0.7,0H40.6z"/>
				<path class="st1" d="M69.3,174h-4.7c-0.5,0-1-0.1-1.3-0.4c-0.3-0.2-0.6-0.6-0.7-0.9l-1.6-4.6H51l-1.6,4.6
					c-0.1,0.3-0.4,0.6-0.7,0.9c-0.3,0.3-0.8,0.4-1.3,0.4h-4.8l10.2-26.3h6.2L69.3,174z M59.6,163.9l-2.4-7.2c-0.2-0.5-0.4-1-0.6-1.6
					c-0.2-0.6-0.4-1.3-0.6-2c-0.2,0.7-0.4,1.4-0.6,2c-0.2,0.6-0.4,1.2-0.6,1.6l-2.4,7.2H59.6z"/>
				<path class="st1" d="M94.2,155.6c-0.7-1.6-1.6-3-2.8-4.2c-1.2-1.2-2.6-2.1-4.3-2.7c-1.7-0.7-3.5-1-5.6-1H71.4v0l6.1,4.7h4.1
					c1.2,0,2.2,0.2,3.1,0.6c0.9,0.4,1.7,1,2.3,1.7c0.6,0.7,1.1,1.6,1.5,2.7c0.3,1,0.5,2.2,0.5,3.5c0,1.3-0.2,2.5-0.5,3.5
					c-0.3,1-0.8,1.9-1.5,2.7c-0.6,0.7-1.4,1.3-2.3,1.7c-0.9,0.4-2,0.6-3.1,0.6h-4.1l-6.1,4.7h10.2c2,0,3.9-0.3,5.6-1
					c1.7-0.7,3.1-1.6,4.3-2.7c1.2-1.2,2.1-2.6,2.8-4.2c0.7-1.6,1-3.4,1-5.3C95.2,158.9,94.9,157.2,94.2,155.6z"/>
				<path class="st1" d="M121.5,174h-4.7c-0.5,0-1-0.1-1.3-0.4c-0.3-0.2-0.6-0.6-0.7-0.9l-1.6-4.6h-10l-1.6,4.6
					c-0.1,0.3-0.4,0.6-0.7,0.9c-0.3,0.3-0.8,0.4-1.3,0.4h-4.8l10.2-26.3h6.2L121.5,174z M111.8,163.9l-2.4-7.2
					c-0.2-0.5-0.4-1-0.6-1.6c-0.2-0.6-0.4-1.3-0.6-2c-0.2,0.7-0.4,1.4-0.6,2c-0.2,0.6-0.4,1.2-0.6,1.6l-2.4,7.2H111.8z"/>
				<path class="st1" d="M148.4,167.2c0.1,0,0.3,0,0.4,0.1c0.1,0.1,0.3,0.1,0.4,0.3l2.4,2.5c-1.1,1.4-2.4,2.4-4,3.1
					c-1.6,0.7-3.5,1.1-5.7,1.1c-2,0-3.8-0.3-5.4-1c-1.6-0.7-2.9-1.6-4-2.8c-1.1-1.2-1.9-2.6-2.5-4.3c-0.6-1.6-0.9-3.4-0.9-5.4
					c0-2,0.3-3.8,1-5.4c0.6-1.6,1.5-3.1,2.7-4.2s2.5-2.1,4.2-2.8c1.6-0.7,3.4-1,5.3-1c1,0,1.9,0.1,2.8,0.3c0.9,0.2,1.7,0.4,2.4,0.7
					c0.8,0.3,1.5,0.7,2.1,1.1c0.6,0.4,1.2,0.9,1.7,1.4l-2.1,2.8c-0.1,0.2-0.3,0.3-0.5,0.5c-0.2,0.1-0.4,0.2-0.8,0.2
					c-0.2,0-0.4,0-0.6-0.1c-0.2-0.1-0.4-0.2-0.6-0.4c-0.2-0.1-0.5-0.3-0.7-0.5c-0.3-0.2-0.6-0.3-0.9-0.5c-0.4-0.1-0.8-0.3-1.2-0.4
					c-0.5-0.1-1-0.1-1.7-0.1c-1,0-1.9,0.2-2.8,0.6c-0.8,0.4-1.6,0.9-2.2,1.6c-0.6,0.7-1.1,1.6-1.4,2.6c-0.3,1-0.5,2.2-0.5,3.6
					c0,1.3,0.2,2.5,0.6,3.6c0.4,1,0.9,1.9,1.5,2.6c0.6,0.7,1.4,1.3,2.2,1.6c0.8,0.4,1.7,0.6,2.7,0.6c0.6,0,1.1,0,1.5-0.1
					c0.5-0.1,0.9-0.1,1.3-0.3c0.4-0.1,0.8-0.3,1.1-0.5c0.3-0.2,0.7-0.5,1.1-0.8c0.1-0.1,0.3-0.2,0.5-0.3
					C148.1,167.2,148.2,167.2,148.4,167.2z"/>
				<path class="st1" d="M179.5,160.8c0,1.9-0.3,3.7-1,5.3c-0.7,1.6-1.6,3.1-2.8,4.3c-1.2,1.2-2.6,2.2-4.3,2.8c-1.7,0.7-3.5,1-5.6,1
					s-3.9-0.3-5.6-1c-1.7-0.7-3.1-1.6-4.3-2.8c-1.2-1.2-2.1-2.6-2.8-4.3c-0.7-1.6-1-3.4-1-5.3c0-1.9,0.3-3.7,1-5.3
					c0.7-1.6,1.6-3.1,2.8-4.3c1.2-1.2,2.6-2.1,4.3-2.8c1.7-0.7,3.5-1,5.6-1s3.9,0.3,5.6,1c1.7,0.7,3.1,1.6,4.3,2.8
					c1.2,1.2,2.1,2.6,2.8,4.3C179.2,157.2,179.5,158.9,179.5,160.8z M173.3,160.8c0-1.3-0.2-2.5-0.5-3.5c-0.3-1-0.8-1.9-1.5-2.6
					c-0.6-0.7-1.4-1.3-2.3-1.7c-0.9-0.4-2-0.6-3.1-0.6c-1.2,0-2.2,0.2-3.1,0.6c-0.9,0.4-1.7,0.9-2.3,1.7c-0.6,0.7-1.1,1.6-1.5,2.6
					c-0.3,1-0.5,2.2-0.5,3.5c0,1.3,0.2,2.5,0.5,3.5c0.3,1,0.8,1.9,1.5,2.6c0.6,0.7,1.4,1.3,2.3,1.7c0.9,0.4,2,0.6,3.1,0.6
					c1.2,0,2.2-0.2,3.1-0.6c0.9-0.4,1.7-0.9,2.3-1.7c0.6-0.7,1.1-1.6,1.5-2.6C173.1,163.3,173.3,162.1,173.3,160.8z"/>
				<path class="st1" d="M212.7,147.7V174h-5.4v-15.1c0-0.3,0-0.7,0-1.1s0.1-0.8,0.1-1.2l-7,13.5c-0.2,0.4-0.5,0.7-0.9,1
					c-0.4,0.2-0.8,0.3-1.3,0.3h-0.8c-0.5,0-0.9-0.1-1.3-0.3c-0.4-0.2-0.7-0.5-0.9-1l-7-13.6c0,0.4,0.1,0.9,0.1,1.3
					c0,0.4,0,0.8,0,1.1V174h-5.4v-26.3h4.7c0.3,0,0.5,0,0.7,0c0.2,0,0.4,0,0.5,0.1c0.2,0.1,0.3,0.2,0.4,0.3s0.2,0.3,0.4,0.5
					l6.8,13.3c0.2,0.5,0.5,0.9,0.7,1.4c0.2,0.5,0.4,1,0.6,1.5c0.2-0.5,0.4-1,0.6-1.6c0.2-0.5,0.5-1,0.7-1.4l6.7-13.3
					c0.1-0.2,0.2-0.4,0.4-0.5s0.3-0.2,0.4-0.3c0.2-0.1,0.3-0.1,0.5-0.1c0.2,0,0.4,0,0.7,0H212.7z"/>
				<path class="st1" d="M227.1,147.7c1.9,0,3.4,0.2,4.8,0.7c1.3,0.4,2.4,1,3.3,1.8c0.9,0.8,1.5,1.7,1.9,2.7c0.4,1,0.6,2.2,0.6,3.4
					c0,1.3-0.2,2.5-0.6,3.6c-0.4,1.1-1.1,2-1.9,2.8c-0.9,0.8-2,1.4-3.3,1.8c-1.3,0.4-2.9,0.7-4.7,0.7h-3.2v8.8h-6.1v-26.3H227.1z
					 M227.1,160.6c1.6,0,2.7-0.4,3.4-1.1s1-1.8,1-3.2c0-0.6-0.1-1.1-0.3-1.6c-0.2-0.5-0.5-0.9-0.8-1.3c-0.4-0.4-0.8-0.6-1.4-0.8
					c-0.6-0.2-1.2-0.3-2-0.3h-3.2v8.3H227.1z"/>
				<path class="st1" d="M262.5,174h-4.7c-0.5,0-1-0.1-1.3-0.4c-0.3-0.2-0.6-0.6-0.7-0.9l-1.6-4.6h-10l-1.6,4.6
					c-0.1,0.3-0.4,0.6-0.7,0.9c-0.3,0.3-0.8,0.4-1.3,0.4h-4.8l10.2-26.3h6.2L262.5,174z M252.8,163.9l-2.4-7.2
					c-0.2-0.5-0.4-1-0.6-1.6c-0.2-0.6-0.4-1.3-0.6-2c-0.2,0.7-0.4,1.4-0.6,2c-0.2,0.6-0.4,1.2-0.6,1.6l-2.4,7.2H252.8z"/>
				<path class="st1" d="M287.5,147.7V174h-3.2c-0.5,0-0.9-0.1-1.2-0.2c-0.3-0.2-0.6-0.4-0.9-0.8l-12.4-15.7c0,0.5,0.1,0.9,0.1,1.4
					c0,0.4,0,0.9,0,1.2V174h-5.4v-26.3h3.2c0.3,0,0.5,0,0.7,0c0.2,0,0.3,0.1,0.5,0.1c0.1,0.1,0.3,0.2,0.4,0.3
					c0.1,0.1,0.3,0.3,0.5,0.5l12.5,15.8c-0.1-0.5-0.1-1-0.1-1.5c0-0.5,0-0.9,0-1.3v-13.9H287.5z"/>
				<path class="st1" d="M305.2,164v10h-6.1v-10l-9.5-16.3h5.4c0.5,0,0.9,0.1,1.3,0.4c0.3,0.2,0.6,0.6,0.8,0.9l3.7,7.7
					c0.3,0.6,0.6,1.2,0.8,1.7c0.3,0.5,0.5,1,0.7,1.5c0.2-0.5,0.4-1,0.6-1.6c0.2-0.5,0.5-1.1,0.8-1.7l3.7-7.7
					c0.1-0.2,0.2-0.3,0.3-0.5c0.1-0.2,0.3-0.3,0.4-0.4c0.2-0.1,0.3-0.2,0.6-0.3c0.2-0.1,0.4-0.1,0.7-0.1h5.4L305.2,164z"/>
				<polygon class="st2" points="84.7,160.8 78,164.7 71.4,168.6 71.4,160.8 71.4,153.1 78,157 				"/>
			</g>
		</g>
		<g>
			<g>
				<path class="st3" d="M11,216.5c0-0.9,0.1-1.7,0.4-2.4c0.3-0.7,0.7-1.2,1.3-1.6c0.5-0.4,1.2-0.7,1.9-0.9c0.7-0.2,1.6-0.3,2.5-0.3
					c0.2,0,0.4,0,0.7,0c0.3,0,0.5,0,0.8,0.1c0.3,0,0.5,0.1,0.7,0.1c0.2,0,0.4,0.1,0.6,0.1c0.2,0,0.3,0.1,0.3,0.2
					c0,0.1,0.1,0.2,0.1,0.3v6.6c0,0.6,0.1,1,0.4,1.2c0.3,0.2,0.7,0.3,1.2,0.3h0.5v2h-0.8c-0.7,0-1.3-0.1-1.8-0.3
					c-0.5-0.2-0.8-0.6-1.1-1.1c-0.3,0.3-0.7,0.6-1.2,0.7c-0.6,0.1-1.2,0.2-1.8,0.2h-0.2c-1.5,0-2.6-0.4-3.4-1.2
					c-0.8-0.8-1.2-2-1.2-3.5V216.5z M13,216.9c0,0.9,0.2,1.7,0.6,2.2c0.4,0.5,1.1,0.8,2.2,0.8h0.4c0.2,0,0.5,0,0.7,0
					c0.3,0,0.5-0.1,0.7-0.2c0.2-0.1,0.4-0.2,0.5-0.4c0.1-0.2,0.2-0.4,0.2-0.6v-5.4c-0.3,0-0.6-0.1-0.8-0.1c-0.2,0-0.5,0-0.7,0
					c-0.6,0-1.1,0-1.6,0.1s-0.9,0.3-1.2,0.5c-0.3,0.2-0.6,0.6-0.8,1c-0.2,0.4-0.3,0.9-0.3,1.6V216.9z M13.1,207
					c0-0.2,0.1-0.3,0.2-0.4c0.1-0.1,0.2-0.1,0.4-0.1h0.9c0.2,0,0.3,0,0.4,0.1c0.1,0.1,0.2,0.2,0.2,0.4v1.3c0,0.1-0.1,0.3-0.2,0.4
					s-0.2,0.1-0.4,0.1h-0.9c-0.2,0-0.3,0-0.4-0.1c-0.1-0.1-0.2-0.2-0.2-0.4V207z M16.9,207c0-0.2,0.1-0.3,0.2-0.4
					c0.1-0.1,0.2-0.1,0.4-0.1h0.9c0.1,0,0.3,0,0.4,0.1c0.1,0.1,0.2,0.2,0.2,0.4v1.3c0,0.1-0.1,0.3-0.2,0.4c-0.1,0.1-0.2,0.1-0.4,0.1
					h-0.9c-0.1,0-0.3,0-0.4-0.1c-0.1-0.1-0.2-0.2-0.2-0.4V207z"/>
				<path class="st3" d="M21.6,220.5c0-0.1,0.1-0.2,0.2-0.2c0.2-0.1,0.3-0.1,0.6-0.1h1.1c0.2,0,0.3,0,0.5,0c0.2,0,0.4,0,0.5-0.1
					s0.3-0.1,0.4-0.3c0.1-0.1,0.2-0.3,0.2-0.5v-6.2c0-0.1,0-0.2,0.1-0.3c0.1-0.1,0.2-0.1,0.3-0.1h1.1c0.1,0,0.2,0,0.3,0.1
					c0.1,0.1,0.1,0.2,0.1,0.3v6.5c0,0.1,0.1,0.2,0.3,0.3c0.2,0.1,0.3,0.1,0.5,0.2c0.2,0,0.4,0.1,0.6,0.1c0.2,0,0.4,0,0.5,0h0.3v2H29
					c-0.5,0-1-0.1-1.6-0.2c-0.6-0.1-1-0.3-1.4-0.6c-0.4,0.3-0.9,0.5-1.4,0.6c-0.5,0.1-1,0.2-1.5,0.2h-0.8c-0.2,0-0.4,0-0.6-0.1
					c-0.2-0.1-0.2-0.1-0.2-0.2V220.5z M22.9,225c0-0.2,0-0.3,0.2-0.4c0.1-0.1,0.2-0.1,0.4-0.1h0.9c0.2,0,0.3,0,0.4,0.1
					c0.1,0.1,0.2,0.2,0.2,0.4v1.3c0,0.1-0.1,0.2-0.2,0.3c-0.1,0.1-0.2,0.2-0.4,0.2h-0.9c-0.2,0-0.3-0.1-0.4-0.2
					c-0.1-0.1-0.2-0.2-0.2-0.3V225z M26.7,225c0-0.2,0.1-0.3,0.2-0.4c0.1-0.1,0.2-0.1,0.4-0.1h0.9c0.1,0,0.3,0,0.4,0.1
					c0.1,0.1,0.2,0.2,0.2,0.4v1.3c0,0.1-0.1,0.2-0.2,0.3c-0.1,0.1-0.2,0.2-0.4,0.2h-0.9c-0.1,0-0.3-0.1-0.4-0.2
					c-0.1-0.1-0.2-0.2-0.2-0.3V225z"/>
				<path class="st3" d="M29.2,222.3c-0.3,0-0.4,0-0.6-0.1c-0.1-0.1-0.2-0.1-0.2-0.2v-1.4c0-0.1,0.1-0.2,0.2-0.2
					c0.2-0.1,0.3-0.1,0.6-0.1h11l-0.9-2l-0.5-1.3c-0.5-1.2-1.2-2.1-2.1-2.7c-0.9-0.6-2-0.9-3.5-0.9c-0.1,0-0.4,0-0.7,0
					c-0.4,0-0.7,0.1-0.9,0.1c-0.3,0-0.5-0.1-0.5-0.3v-1c0-0.1,0-0.2,0.1-0.3c0.1-0.1,0.2-0.1,0.4-0.2c0.3-0.1,0.7-0.1,1.1-0.2
					c0.4,0,0.8,0,1.1,0c0.8,0,1.5,0.1,2.2,0.2c0.7,0.1,1.3,0.4,2,0.8c0.6,0.4,1.2,1,1.7,1.6c0.5,0.7,1,1.6,1.5,2.7l0.3,0.6l0.9,2.4
					c0.1,0.1,0.1,0.2,0.2,0.2c0,0,0.1,0,0.3,0h0.2v2H29.2z M34.1,225c0-0.2,0.1-0.3,0.2-0.4c0.1-0.1,0.2-0.1,0.4-0.1h1
					c0.1,0,0.3,0,0.4,0.1c0.1,0.1,0.2,0.2,0.2,0.4v1.3c0,0.1-0.1,0.2-0.2,0.3s-0.2,0.2-0.4,0.2h-1c-0.1,0-0.3-0.1-0.4-0.2
					s-0.2-0.2-0.2-0.3V225z"/>
				<path class="st3" d="M41.9,220.5c0-0.1,0.1-0.2,0.2-0.2c0.2-0.1,0.3-0.1,0.6-0.1h0.8c0.1,0,0.3,0,0.4,0c0.2,0,0.3-0.1,0.5-0.1
					c0.2-0.1,0.3-0.1,0.5-0.2c0.1-0.1,0.2-0.2,0.3-0.4c0-0.2,0.1-0.4,0.1-0.7v-2.3c0-1.6,0.4-2.9,1.3-3.7c0.8-0.9,2.1-1.3,3.6-1.3
					s2.8,0.4,3.6,1.3s1.2,2.1,1.2,3.7v1.2c0,1.6-0.4,2.9-1.1,3.7c-0.8,0.8-2,1.3-3.7,1.3c-0.9,0-1.7-0.1-2.3-0.4
					c-0.7-0.2-1.2-0.6-1.6-1.1c-0.3,0.4-0.7,0.7-1.2,0.9c-0.6,0.2-1.2,0.2-1.8,0.2h-0.4c-0.2,0-0.4,0-0.6-0.1
					c-0.2-0.1-0.2-0.1-0.2-0.2V220.5z M47.2,217.7c0,0.5,0,0.9,0.1,1.3c0.2,0.7,0.5,1.2,0.9,1.4c0.5,0.2,1.1,0.4,1.8,0.4
					c1,0,1.8-0.2,2.2-0.7s0.6-1.3,0.6-2.5v-0.9c0-1.1-0.2-1.9-0.6-2.5c-0.4-0.6-1.1-0.9-2.2-0.9c-1,0-1.8,0.3-2.2,0.9
					c-0.4,0.6-0.7,1.4-0.7,2.5V217.7z"/>
				<path class="st3" d="M55.4,226.3c0-0.2,0.1-0.3,0.4-0.3h0.5c0.5,0,0.9,0,1.3-0.1s0.6-0.1,0.8-0.3c0.2-0.2,0.3-0.4,0.4-0.7
					c0.1-0.3,0.1-0.7,0.1-1.2v-10.5c0-0.1,0-0.2,0.1-0.3c0.1-0.1,0.2-0.1,0.3-0.1h1.2c0.1,0,0.2,0,0.3,0.1c0.1,0.1,0.1,0.2,0.1,0.3
					v7.1h2.2v2h-2.2v1.5c0,0.5,0,1-0.1,1.4c-0.1,0.4-0.2,0.8-0.4,1.1c-0.3,0.6-0.8,0.9-1.3,1.2c-0.6,0.2-1.3,0.3-2.2,0.3
					c-0.1,0-0.2,0-0.5,0c-0.3,0-0.5,0-0.6-0.1c-0.2,0-0.3-0.1-0.3-0.1s-0.1-0.1-0.1-0.2V226.3z"/>
				<path class="st3" d="M62.1,220.5c0-0.1,0.1-0.2,0.2-0.2c0.2-0.1,0.3-0.1,0.6-0.1H64c0.2,0,0.3,0,0.5,0c0.2,0,0.4,0,0.5-0.1
					c0.2-0.1,0.3-0.1,0.4-0.3c0.1-0.1,0.2-0.3,0.2-0.5v-6.2c0-0.1,0-0.2,0.1-0.3s0.2-0.1,0.3-0.1h1.1c0.1,0,0.2,0,0.3,0.1
					c0.1,0.1,0.1,0.2,0.1,0.3v6.5c0,0.1,0.1,0.2,0.3,0.3c0.2,0.1,0.3,0.1,0.5,0.2c0.2,0,0.4,0.1,0.6,0.1c0.2,0,0.4,0,0.5,0h0.3v2
					h-0.3c-0.5,0-1-0.1-1.6-0.2c-0.6-0.1-1-0.3-1.4-0.6c-0.4,0.3-0.9,0.5-1.4,0.6c-0.5,0.1-1,0.2-1.5,0.2h-0.8c-0.2,0-0.4,0-0.6-0.1
					c-0.2-0.1-0.2-0.1-0.2-0.2V220.5z M65.5,225c0-0.2,0.1-0.3,0.2-0.4c0.1-0.1,0.2-0.1,0.4-0.1h1c0.1,0,0.3,0,0.4,0.1
					c0.1,0.1,0.2,0.2,0.2,0.4v1.3c0,0.1-0.1,0.2-0.2,0.3s-0.2,0.2-0.4,0.2h-1c-0.1,0-0.3-0.1-0.4-0.2c-0.1-0.1-0.2-0.2-0.2-0.3V225z
					"/>
				<path class="st3" d="M68.9,220.5c0-0.1,0.1-0.2,0.2-0.2c0.2-0.1,0.3-0.1,0.6-0.1h1.9c0.5,0,0.7,0,0.9-0.1
					c0.1-0.1,0.2-0.3,0.2-0.7V205c0-0.1,0-0.2,0.1-0.3c0.1-0.1,0.2-0.1,0.3-0.1h1.2c0.1,0,0.2,0,0.3,0.1c0.1,0.1,0.1,0.2,0.1,0.3
					v13.6c0,0.2,0,0.4,0,0.6c0,0.2,0,0.5,0,0.7c0,0.3,0,0.5,0,0.7c0,0.2,0,0.4-0.1,0.6c0,0.2-0.1,0.3-0.1,0.4
					c-0.1,0.1-0.2,0.2-0.4,0.3c-0.1,0-0.3,0.1-0.5,0.1c-0.2,0-0.5,0-0.8,0.1c-0.3,0-0.6,0-0.9,0c-0.3,0-0.6,0-0.9,0h-1.3
					c-0.2,0-0.4,0-0.6-0.1c-0.2-0.1-0.2-0.1-0.2-0.2V220.5z"/>
				<path class="st3" d="M78.7,205c0-0.1,0-0.2,0.1-0.3s0.2-0.1,0.3-0.1h1.2c0.1,0,0.2,0,0.3,0.1c0.1,0.1,0.1,0.2,0.1,0.3v16.8
					c0,0.1,0,0.2-0.1,0.3c-0.1,0.1-0.2,0.1-0.3,0.1h-1.2c-0.1,0-0.2,0-0.3-0.1c-0.1-0.1-0.1-0.2-0.1-0.3V205z"/>
				<path class="st3" d="M104.8,220.2c0.4,0,0.7,0,0.9-0.1c0.1-0.1,0.2-0.3,0.2-0.7c0-0.6,0-1.1,0-1.6c0-0.5,0-1,0-1.5
					c0-0.5,0-1,0-1.5c0-0.5,0-1.1,0-1.7c0-0.1,0-0.2,0.1-0.3c0.1-0.1,0.2-0.1,0.3-0.1h1.1c0.1,0,0.3,0,0.3,0.1s0.1,0.2,0.1,0.3
					c0,0.5,0,1,0,1.3c0,0.4,0,0.7,0,1c0,0.3,0,0.6,0,1c0,0.3,0,0.7,0,1.2c0,0.8,0,1.5,0,2.1c0,0.6,0,1.1-0.1,1.5
					c0,0.2-0.1,0.3-0.2,0.4c-0.1,0.1-0.2,0.2-0.4,0.3c-0.1,0-0.3,0.1-0.6,0.1c-0.3,0-0.6,0-1,0.1c-0.4,0-0.8,0-1.3,0
					c-0.4,0-0.9,0-1.3,0h-5.5c-1.5,0-2.8-0.1-3.7-0.4c-1-0.3-1.7-0.7-2.3-1.3c-0.6-0.5-0.9-1.2-1.2-2c-0.2-0.8-0.3-1.6-0.3-2.6
					c0-0.3,0-0.7,0-1c0-0.4,0.1-0.8,0.2-1.2c0-0.3,0.2-0.4,0.5-0.4h1c0.3,0,0.4,0.2,0.4,0.5c0,0.4-0.1,0.7-0.1,0.9
					c0,0.3,0,0.5,0,0.8c0,0.7,0.1,1.4,0.2,1.9c0.1,0.6,0.4,1.1,0.8,1.5c0.4,0.4,1,0.8,1.7,1c0.7,0.2,1.7,0.3,3,0.3H104.8z
					 M95.9,209.2c0-0.2,0-0.3,0.2-0.4c0.1-0.1,0.2-0.1,0.4-0.1h0.9c0.2,0,0.3,0,0.4,0.1c0.1,0.1,0.2,0.2,0.2,0.4v1.3
					c0,0.1-0.1,0.3-0.2,0.4c-0.1,0.1-0.2,0.1-0.4,0.1h-0.9c-0.2,0-0.3,0-0.4-0.1c-0.1-0.1-0.2-0.2-0.2-0.4V209.2z M99.8,209.2
					c0-0.2,0.1-0.3,0.2-0.4c0.1-0.1,0.2-0.1,0.4-0.1h0.9c0.1,0,0.3,0,0.4,0.1c0.1,0.1,0.2,0.2,0.2,0.4v1.3c0,0.1-0.1,0.3-0.2,0.4
					c-0.1,0.1-0.2,0.1-0.4,0.1h-0.9c-0.1,0-0.3,0-0.4-0.1c-0.1-0.1-0.2-0.2-0.2-0.4V209.2z"/>
				<path class="st3" d="M111.8,205c0-0.1,0-0.2,0.1-0.3s0.2-0.1,0.3-0.1h1.2c0.1,0,0.2,0,0.3,0.1c0.1,0.1,0.1,0.2,0.1,0.3v13.9
					c0,0.3,0,0.6,0.1,0.7c0.1,0.2,0.2,0.3,0.3,0.4c0.1,0.1,0.3,0.2,0.5,0.2c0.2,0,0.4,0,0.7,0h0.6v2h-1.1c-0.5,0-0.9,0-1.3-0.1
					c-0.4-0.1-0.7-0.2-1-0.5c-0.3-0.2-0.5-0.5-0.6-0.9c-0.1-0.4-0.2-0.9-0.2-1.5V205z"/>
				<path class="st3" d="M115.1,220.5c0-0.1,0.1-0.2,0.2-0.2c0.2-0.1,0.3-0.1,0.6-0.1h0.8c0.1,0,0.3,0,0.4,0c0.2,0,0.3-0.1,0.5-0.1
					c0.2-0.1,0.3-0.1,0.5-0.2c0.1-0.1,0.2-0.2,0.3-0.4c0-0.2,0.1-0.4,0.1-0.7v-2.3c0-1.6,0.4-2.9,1.3-3.7c0.8-0.9,2.1-1.3,3.6-1.3
					s2.8,0.4,3.6,1.3s1.2,2.1,1.2,3.7v1.2c0,1.6-0.4,2.9-1.1,3.7c-0.8,0.8-2,1.3-3.7,1.3c-0.9,0-1.7-0.1-2.3-0.4
					c-0.7-0.2-1.2-0.6-1.6-1.1c-0.3,0.4-0.7,0.7-1.2,0.9s-1.2,0.2-1.8,0.2h-0.4c-0.2,0-0.4,0-0.6-0.1c-0.2-0.1-0.2-0.1-0.2-0.2
					V220.5z M120.4,217.7c0,0.5,0,0.9,0.1,1.3c0.2,0.7,0.5,1.2,0.9,1.4c0.5,0.2,1.1,0.4,1.8,0.4c1,0,1.8-0.2,2.2-0.7
					s0.6-1.3,0.6-2.5v-0.9c0-1.1-0.2-1.9-0.6-2.5c-0.4-0.6-1.1-0.9-2.2-0.9c-1,0-1.8,0.3-2.2,0.9c-0.4,0.6-0.7,1.4-0.7,2.5V217.7z"
					/>
				<path class="st3" d="M130.2,220.7c0-0.1,0-0.2,0.1-0.3s0.2-0.1,0.3-0.1h6.4l0-2.9c0-1.4-0.4-2.4-1-3.1c-0.7-0.7-1.7-1-3.2-1
					c-0.2,0-0.4,0-0.7,0c-0.3,0-0.6,0-0.8,0.1c-0.3,0-0.5-0.1-0.5-0.3v-1c0-0.1,0-0.2,0.1-0.3c0.1-0.1,0.2-0.1,0.4-0.1
					c0.4-0.1,0.8-0.1,1.2-0.1c0.4,0,0.6,0,0.8,0c1.1,0,2,0.1,2.7,0.4c0.7,0.3,1.3,0.7,1.8,1.2s0.8,1.1,1,1.8
					c0.2,0.7,0.3,1.5,0.4,2.3l0,3h1.6v2h-10c-0.1,0-0.2,0-0.3-0.1c-0.1-0.1-0.1-0.2-0.1-0.3V220.7z"/>
				<path class="st3" d="M140.5,222.3c-0.3,0-0.4,0-0.6-0.1c-0.1-0.1-0.2-0.1-0.2-0.2v-1.4c0-0.1,0.1-0.2,0.2-0.2
					c0.2-0.1,0.3-0.1,0.6-0.1h11l-0.9-2L150,217c-0.5-1.2-1.2-2.1-2.1-2.7c-0.9-0.6-2-0.9-3.5-0.9c-0.1,0-0.4,0-0.7,0
					c-0.4,0-0.7,0.1-0.9,0.1c-0.3,0-0.5-0.1-0.5-0.3v-1c0-0.1,0-0.2,0.1-0.3c0.1-0.1,0.2-0.1,0.4-0.2c0.3-0.1,0.7-0.1,1.1-0.2
					c0.4,0,0.8,0,1.1,0c0.8,0,1.5,0.1,2.2,0.2c0.7,0.1,1.3,0.4,2,0.8c0.6,0.4,1.2,1,1.7,1.6c0.5,0.7,1,1.6,1.5,2.7l0.3,0.6l0.9,2.4
					c0.1,0.1,0.1,0.2,0.2,0.2c0,0,0.1,0,0.3,0h0.2v2H140.5z M145.2,207.2c0-0.2,0.1-0.3,0.2-0.4c0.1-0.1,0.2-0.1,0.4-0.1h1
					c0.1,0,0.3,0,0.4,0.1c0.1,0.1,0.2,0.2,0.2,0.4v1.3c0,0.1-0.1,0.3-0.2,0.4c-0.1,0.1-0.2,0.1-0.4,0.1h-1c-0.2,0-0.3,0-0.4-0.1
					c-0.1-0.1-0.2-0.2-0.2-0.4V207.2z"/>
				<path class="st3" d="M153.2,220.5c0-0.1,0.1-0.2,0.2-0.2c0.2-0.1,0.3-0.1,0.6-0.1h1.9c0.5,0,0.7,0,0.9-0.1
					c0.1-0.1,0.2-0.3,0.2-0.7V205c0-0.1,0-0.2,0.1-0.3s0.2-0.1,0.3-0.1h1.2c0.1,0,0.2,0,0.3,0.1c0.1,0.1,0.1,0.2,0.1,0.3v13.6
					c0,0.2,0,0.4,0,0.6c0,0.2,0,0.5,0,0.7c0,0.3,0,0.5,0,0.7c0,0.2,0,0.4-0.1,0.6c0,0.2-0.1,0.3-0.1,0.4c-0.1,0.1-0.2,0.2-0.4,0.3
					c-0.1,0-0.3,0.1-0.5,0.1c-0.2,0-0.5,0-0.8,0.1c-0.3,0-0.6,0-0.9,0c-0.3,0-0.6,0-0.9,0H154c-0.2,0-0.4,0-0.6-0.1
					c-0.2-0.1-0.2-0.1-0.2-0.2V220.5z"/>
				<path class="st3" d="M163,205c0-0.1,0-0.2,0.1-0.3s0.2-0.1,0.3-0.1h1.2c0.1,0,0.2,0,0.3,0.1s0.1,0.2,0.1,0.3v16.8
					c0,0.1,0,0.2-0.1,0.3c-0.1,0.1-0.2,0.1-0.3,0.1h-1.2c-0.1,0-0.2,0-0.3-0.1c-0.1-0.1-0.1-0.2-0.1-0.3V205z"/>
				<path class="st3" d="M175.3,226.3c0-0.2,0.1-0.3,0.4-0.3c0.3,0,0.6,0,1,0c0.4,0,0.7,0,1,0c0.6,0,1.2,0,1.7-0.1
					c0.5-0.1,0.9-0.2,1.3-0.4c0.4-0.2,0.6-0.5,0.8-0.8c0.2-0.4,0.3-0.8,0.3-1.4v-1.4c-0.1,0.1-0.3,0.2-0.5,0.2
					c-0.2,0.1-0.4,0.1-0.7,0.1c-0.3,0-0.5,0.1-0.8,0.1c-0.3,0-0.5,0-0.7,0c-1.4,0-2.6-0.4-3.4-1.2c-0.9-0.8-1.3-2.1-1.3-3.7v-0.6
					c0-1.7,0.5-3,1.5-3.9c1-1,2.4-1.4,4.2-1.4c0.6,0,1.2,0,1.8,0.1c0.6,0.1,1.1,0.1,1.5,0.3c0.2,0,0.3,0.1,0.3,0.2s0.1,0.1,0.1,0.3
					v10.7c0,1-0.1,1.8-0.4,2.4c-0.3,0.6-0.7,1.1-1.2,1.5c-0.5,0.4-1.1,0.6-1.8,0.8c-0.7,0.1-1.5,0.2-2.3,0.2c-0.2,0-0.4,0-0.6,0
					c-0.2,0-0.5,0-0.7,0c-0.2,0-0.5,0-0.7,0c-0.2,0-0.3,0-0.4,0c-0.2,0-0.3-0.1-0.3-0.1c0-0.1-0.1-0.1-0.1-0.2V226.3z M181.8,213.3
					c-0.3,0-0.6-0.1-0.9-0.1c-0.3,0-0.7,0-1.1,0c-1,0-1.9,0.3-2.5,0.9c-0.6,0.6-0.9,1.4-0.9,2.5v0.5c0,1.1,0.2,1.9,0.7,2.4
					c0.5,0.5,1.3,0.8,2.4,0.8c0.6,0,1.1,0,1.6-0.1c0.4-0.1,0.7-0.3,0.7-0.7V213.3z"/>
				<path class="st3" d="M192.8,219.1c0-0.1,0-0.3,0-0.6c0-0.2,0-0.5,0.1-0.8c0-0.3,0-0.6,0.1-0.8c0-0.3,0.1-0.5,0.1-0.8
					c0-0.3,0.2-0.4,0.5-0.4h1c0.3,0,0.4,0.2,0.4,0.5c0,0.4-0.1,0.8-0.1,1.2c0,0.4-0.1,0.8-0.1,1c0,0.8,0.1,1.5,0.2,2.2
					c0.1,0.7,0.3,1.3,0.7,1.8c0.4,0.5,0.9,0.9,1.6,1.3c0.7,0.3,1.7,0.5,2.9,0.5c0.5,0,0.9,0,1.4,0c0.5,0,0.9-0.1,1.3-0.2
					c0-0.4,0-0.8,0-1.1c0-0.3,0-0.6,0-0.9c0-0.3,0-0.5,0-0.8c0-0.3,0-0.6,0-0.9v-2.6c0-1.7,0.5-2.9,1.4-3.6c1-0.8,2.3-1.1,4-1.1
					c0.5,0,1,0,1.6,0.1c0.5,0,1,0.1,1.5,0.2c0.1,0,0.2,0.1,0.3,0.1c0.1,0.1,0.1,0.2,0.1,0.3v5.7c0,0.4,0.1,0.6,0.2,0.7
					c0.2,0.1,0.5,0.2,1,0.2h1.1v2h-1.6c-1,0-1.7-0.2-2.1-0.5c-0.4-0.4-0.6-1-0.6-1.9v-4.9c-0.3,0-0.6-0.1-0.8-0.1
					c-0.2,0-0.5,0-0.8,0c-0.5,0-1,0-1.4,0.1c-0.4,0.1-0.7,0.3-1,0.5c-0.3,0.2-0.5,0.5-0.6,0.9c-0.2,0.4-0.2,0.9-0.2,1.5v4.3
					c0,0.2,0,0.5,0,0.8c0,0.3,0,0.6,0,0.9s0,0.6,0,0.9c0,0.3,0,0.5,0,0.8c0,0.3-0.2,0.4-0.5,0.5c-0.6,0.1-1.2,0.2-2,0.2
					s-1.5,0.1-2.2,0.1c-1.4,0-2.6-0.2-3.5-0.5c-0.9-0.3-1.6-0.8-2.2-1.4c-0.6-0.6-0.9-1.4-1.2-2.2
					C192.9,221.2,192.8,220.2,192.8,219.1z M195.9,228.6c0-0.2,0.1-0.3,0.2-0.4c0.1-0.1,0.2-0.1,0.4-0.1h0.9c0.1,0,0.3,0,0.4,0.1
					c0.1,0.1,0.2,0.2,0.2,0.4v1.2c0,0.1-0.1,0.2-0.2,0.3c-0.1,0.1-0.2,0.1-0.4,0.1h-0.9c-0.2,0-0.3,0-0.4-0.1
					c-0.1-0.1-0.2-0.2-0.2-0.3V228.6z M199.8,228.6c0-0.2,0.1-0.3,0.2-0.4c0.1-0.1,0.2-0.1,0.4-0.1h0.9c0.1,0,0.2,0,0.4,0.1
					c0.1,0.1,0.2,0.2,0.2,0.4v1.2c0,0.1-0.1,0.2-0.2,0.3c-0.1,0.1-0.2,0.1-0.4,0.1h-0.9c-0.1,0-0.2,0-0.4-0.1
					c-0.1-0.1-0.2-0.2-0.2-0.3V228.6z"/>
				<path class="st3" d="M212.9,220.5c0-0.1,0.1-0.2,0.2-0.2c0.2-0.1,0.3-0.1,0.6-0.1h1.7c0.5,0,0.7,0,0.9-0.1
					c0.1-0.1,0.2-0.3,0.2-0.7c0-0.6,0-1.1,0-1.6c0-0.5,0-1,0-1.5c0-0.5,0-1,0-1.5s0-1.1,0-1.7c0-0.1,0-0.2,0.1-0.3
					c0.1-0.1,0.2-0.1,0.3-0.1h1.1c0.1,0,0.3,0,0.3,0.1c0.1,0.1,0.1,0.2,0.1,0.3c0,0.5,0,1,0,1.3c0,0.4,0,0.7,0,1c0,0.3,0,0.7,0,1
					c0,0.3,0,0.7,0,1.2c0,0.8,0,1.5,0,2.1c0,0.6,0,1.1-0.1,1.5c0,0.2-0.1,0.3-0.2,0.4c-0.1,0.1-0.2,0.2-0.4,0.3
					c-0.1,0-0.3,0.1-0.5,0.1c-0.2,0-0.5,0-0.8,0.1c-0.3,0-0.6,0-0.9,0c-0.3,0-0.6,0-0.9,0h-1.1c-0.2,0-0.4,0-0.6-0.1
					c-0.2-0.1-0.2-0.1-0.2-0.2V220.5z M215.6,209.8c-0.3,0-0.4-0.1-0.4-0.3v-0.4c0-0.2,0.1-0.2,0.4-0.2h0.4
					c-0.1-0.2-0.2-0.4-0.3-0.6c-0.1-0.2-0.1-0.5-0.1-0.7c0-0.7,0.2-1.1,0.6-1.5c0.4-0.3,0.9-0.5,1.6-0.5c0.1,0,0.3,0,0.4,0
					c0.2,0,0.3,0,0.5,0.1c0.2,0.1,0.3,0.2,0.3,0.3v0.3c0,0.2-0.1,0.3-0.3,0.3c0,0-0.1,0-0.3,0c-0.2,0-0.3,0-0.4,0
					c-0.8,0-1.3,0.4-1.3,1.1c0,0.3,0.1,0.6,0.2,0.8c0.1,0.2,0.2,0.4,0.4,0.4h1.6c0.3,0,0.4,0.1,0.4,0.3v0.4c0,0.1,0,0.2-0.1,0.2
					c-0.1,0-0.2,0-0.3,0H215.6z"/>
				<path class="st3" d="M219.5,226.3c0-0.2,0.1-0.3,0.4-0.3h0.5c0.5,0,0.9,0,1.3-0.1c0.3,0,0.6-0.1,0.8-0.3
					c0.2-0.2,0.3-0.4,0.4-0.7c0.1-0.3,0.1-0.7,0.1-1.2v-10.5c0-0.1,0-0.2,0.1-0.3c0.1-0.1,0.2-0.1,0.3-0.1h1.2c0.1,0,0.2,0,0.3,0.1
					c0.1,0.1,0.1,0.2,0.1,0.3v7.1h2.2v2H225v1.5c0,0.5,0,1-0.1,1.4c-0.1,0.4-0.2,0.8-0.4,1.1c-0.3,0.6-0.8,0.9-1.3,1.2
					c-0.6,0.2-1.3,0.3-2.2,0.3c-0.1,0-0.2,0-0.5,0c-0.3,0-0.5,0-0.6-0.1c-0.2,0-0.3-0.1-0.3-0.1s-0.1-0.1-0.1-0.2V226.3z"/>
				<path class="st3" d="M226.2,220.5c0-0.1,0.1-0.2,0.2-0.2c0.2-0.1,0.3-0.1,0.6-0.1h0.8c0.1,0,0.3,0,0.4,0c0.2,0,0.4,0,0.5-0.1
					s0.3-0.1,0.5-0.2s0.2-0.2,0.2-0.4c0-0.2,0.1-0.4,0.1-0.7v-2.3c0-1.6,0.4-2.9,1.3-3.7c0.8-0.9,2.1-1.3,3.6-1.3s2.8,0.4,3.6,1.3
					s1.2,2.1,1.2,3.8v1.3c0,0.2,0,0.4,0,0.6s0,0.4-0.1,0.6c0,0.2,0.1,0.4,0.2,0.5c0.1,0.1,0.3,0.3,0.5,0.3c0.2,0.1,0.4,0.1,0.6,0.2
					c0.2,0,0.3,0,0.5,0h0.3v2h-0.3c-0.5,0-1-0.1-1.5-0.2c-0.5-0.1-0.9-0.4-1.2-0.7c-0.7,1.1-2,1.6-3.8,1.6c-0.9,0-1.7-0.1-2.4-0.4
					s-1.2-0.7-1.6-1.2c-0.3,0.4-0.7,0.6-1.2,0.7c-0.5,0.1-1,0.2-1.6,0.2H227c-0.2,0-0.4,0-0.6-0.1c-0.2-0.1-0.2-0.1-0.2-0.2V220.5z
					 M231.5,216.8v1.1c0,0.5,0,1,0.1,1.3c0.1,0.7,0.4,1.1,0.9,1.4c0.5,0.3,1.1,0.4,1.8,0.4c1,0,1.8-0.3,2.2-0.8
					c0.4-0.5,0.6-1.3,0.6-2.4v-1.1c0-1.1-0.2-1.9-0.6-2.5c-0.4-0.6-1.1-0.9-2.2-0.9c-1,0-1.8,0.3-2.2,0.9
					C231.7,214.9,231.5,215.7,231.5,216.8z"/>
				<path class="st3" d="M240.2,220.5c0-0.1,0.1-0.2,0.2-0.2c0.2-0.1,0.3-0.1,0.6-0.1h1.9c0.5,0,0.7,0,0.9-0.1
					c0.1-0.1,0.2-0.3,0.2-0.7V205c0-0.1,0-0.2,0.1-0.3s0.2-0.1,0.3-0.1h1.2c0.1,0,0.2,0,0.3,0.1c0.1,0.1,0.1,0.2,0.1,0.3v13.6
					c0,0.2,0,0.4,0,0.6c0,0.2,0,0.5,0,0.7c0,0.3,0,0.5,0,0.7c0,0.2,0,0.4-0.1,0.6c0,0.2-0.1,0.3-0.1,0.4c-0.1,0.1-0.2,0.2-0.4,0.3
					c-0.1,0-0.3,0.1-0.5,0.1c-0.2,0-0.5,0-0.8,0.1c-0.3,0-0.6,0-0.9,0c-0.3,0-0.6,0-0.9,0H241c-0.2,0-0.4,0-0.6-0.1
					c-0.2-0.1-0.2-0.1-0.2-0.2V220.5z"/>
				<path class="st3" d="M250,205c0-0.1,0-0.2,0.1-0.3s0.2-0.1,0.3-0.1h1.2c0.1,0,0.2,0,0.3,0.1c0.1,0.1,0.1,0.2,0.1,0.3v16.8
					c0,0.1,0,0.2-0.1,0.3c-0.1,0.1-0.2,0.1-0.3,0.1h-1.2c-0.1,0-0.2,0-0.3-0.1c-0.1-0.1-0.1-0.2-0.1-0.3V205z"/>
				<path class="st3" d="M261.3,223c0-0.3,0-0.7,0-1.1c0-0.5,0.1-0.8,0.1-1.1c0-0.2,0.1-0.3,0.2-0.4c0.1-0.1,0.2-0.1,0.4-0.1
					c0.1,0,0.2,0,0.4,0c0.2,0,0.4,0,0.6,0c0.2,0,0.4,0,0.6,0s0.4,0,0.6,0h6.8l-0.9-2.1l-0.5-1.2c-0.3-0.6-0.6-1.1-0.9-1.6
					c-0.3-0.4-0.7-0.8-1.1-1.1c-0.4-0.3-0.9-0.5-1.4-0.7c-0.5-0.1-1.1-0.2-1.8-0.2c-0.1,0-0.2,0-0.3,0c-0.1,0-0.3,0-0.5,0
					c-0.2,0-0.3,0-0.5,0s-0.3,0-0.5,0c-0.3,0-0.5-0.1-0.5-0.4v-0.9c0-0.1,0-0.2,0.1-0.3c0.1-0.1,0.2-0.1,0.3-0.2
					c0.7-0.1,1.4-0.2,2.1-0.2c0.8,0,1.5,0.1,2.2,0.2c0.7,0.1,1.3,0.4,1.9,0.8c0.6,0.4,1.1,0.9,1.7,1.6c0.5,0.7,1,1.6,1.5,2.7
					l0.3,0.6l1,2.5c0,0.1,0.1,0.2,0.1,0.3c0,0.1,0,0.3,0,0.4v0.8c0,0.2,0,0.3-0.1,0.4c-0.1,0.1-0.3,0.2-0.5,0.2h-7.3
					c-0.2,0-0.6,0-0.9,0c-0.4,0-0.7,0-1,0c0,0.2,0,0.4,0,0.5c0,0.1,0,0.3,0,0.3c0,2.3,1,3.4,2.9,3.4h0.1c0.3,0,0.4,0.1,0.4,0.4v0.9
					c0,0.1,0,0.2-0.1,0.3c0,0.1-0.2,0.1-0.3,0.1c-0.1,0-0.2,0-0.2,0c-0.1,0-0.1,0-0.1,0c-1.5,0-2.7-0.5-3.4-1.4
					C261.7,226.1,261.3,224.7,261.3,223z M267,224.2c0-0.2,0.1-0.3,0.2-0.4c0.1-0.1,0.2-0.1,0.4-0.1h0.9c0.1,0,0.3,0,0.4,0.1
					c0.1,0.1,0.2,0.2,0.2,0.4v1.1c0,0.1-0.1,0.3-0.2,0.4c-0.1,0.1-0.2,0.2-0.4,0.2h-0.9c-0.1,0-0.3-0.1-0.4-0.2
					c-0.1-0.1-0.2-0.2-0.2-0.4V224.2z"/>
				<path class="st3" d="M276.5,205c0-0.1,0-0.2,0.1-0.3c0.1-0.1,0.2-0.1,0.3-0.1h1.2c0.1,0,0.2,0,0.3,0.1s0.1,0.2,0.1,0.3v13.9
					c0,0.3,0,0.6,0.1,0.7c0.1,0.2,0.2,0.3,0.3,0.4c0.1,0.1,0.3,0.2,0.5,0.2c0.2,0,0.4,0,0.7,0h0.6v2h-1.1c-0.5,0-0.9,0-1.3-0.1
					c-0.4-0.1-0.7-0.2-1-0.5c-0.3-0.2-0.5-0.5-0.6-0.9c-0.1-0.4-0.2-0.9-0.2-1.5V205z"/>
				<path class="st3" d="M279.8,220.5c0-0.1,0.1-0.2,0.2-0.2c0.2-0.1,0.3-0.1,0.6-0.1h1.1c0.2,0,0.3,0,0.5,0c0.2,0,0.4,0,0.5-0.1
					s0.3-0.1,0.4-0.3c0.1-0.1,0.2-0.3,0.2-0.5v-6.2c0-0.1,0-0.2,0.1-0.3c0.1-0.1,0.2-0.1,0.3-0.1h1.1c0.1,0,0.2,0,0.3,0.1
					c0.1,0.1,0.1,0.2,0.1,0.3v6.5c0,0.1,0.1,0.2,0.3,0.3c0.2,0.1,0.3,0.1,0.5,0.2c0.2,0,0.4,0.1,0.6,0.1c0.2,0,0.4,0,0.5,0h0.3v2
					h-0.3c-0.5,0-1-0.1-1.6-0.2c-0.6-0.1-1-0.3-1.4-0.6c-0.4,0.3-0.9,0.5-1.4,0.6c-0.5,0.1-1,0.2-1.5,0.2h-0.8c-0.2,0-0.4,0-0.6-0.1
					c-0.2-0.1-0.2-0.1-0.2-0.2V220.5z M281.3,207.9c0-0.2,0.1-0.3,0.2-0.4c0.1-0.1,0.2-0.1,0.4-0.1h0.9c0.2,0,0.3,0,0.4,0.1
					c0.1,0.1,0.2,0.2,0.2,0.4v1.3c0,0.1-0.1,0.3-0.2,0.4c-0.1,0.1-0.2,0.1-0.4,0.1h-0.9c-0.2,0-0.3,0-0.4-0.1
					c-0.1-0.1-0.2-0.2-0.2-0.4V207.9z M285.1,207.9c0-0.2,0.1-0.3,0.2-0.4c0.1-0.1,0.2-0.1,0.4-0.1h0.9c0.1,0,0.3,0,0.4,0.1
					c0.1,0.1,0.2,0.2,0.2,0.4v1.3c0,0.1-0.1,0.3-0.2,0.4c-0.1,0.1-0.2,0.1-0.4,0.1h-0.9c-0.1,0-0.3,0-0.4-0.1
					c-0.1-0.1-0.2-0.2-0.2-0.4V207.9z"/>
				<path class="st3" d="M287.3,222.3c-0.2,0-0.4,0-0.6-0.1c-0.2-0.1-0.2-0.1-0.2-0.2v-1.4c0-0.1,0.1-0.2,0.2-0.2
					c0.2-0.1,0.3-0.1,0.6-0.1h2.5c0.5,0,0.7,0,0.9-0.1c0.1-0.1,0.2-0.3,0.2-0.7c0-0.6,0-1.1,0-1.6c0-0.5,0-1,0-1.5c0-0.5,0-1,0-1.5
					s0-1.1,0-1.7c0-0.1,0-0.2,0.1-0.3c0.1-0.1,0.2-0.1,0.3-0.1h1.1c0.1,0,0.3,0,0.3,0.1s0.1,0.2,0.1,0.3c0,0.5,0,1,0,1.3
					c0,0.4,0,0.7,0,1c0,0.3,0,0.7,0,1c0,0.3,0,0.7,0,1.2c0,0.8,0,1.5,0,2.1c0,0.6,0,1.1-0.1,1.5c0,0.2-0.1,0.3-0.2,0.4
					c-0.1,0.1-0.2,0.2-0.4,0.3c-0.1,0-0.3,0.1-0.5,0.1c-0.2,0-0.5,0-0.8,0.1c-0.3,0-0.6,0-0.9,0c-0.3,0-0.6,0-0.9,0H287.3z
					 M290.8,207.9c0-0.2,0.1-0.3,0.2-0.4c0.1-0.1,0.2-0.1,0.4-0.1h1c0.1,0,0.3,0,0.4,0.1c0.1,0.1,0.2,0.2,0.2,0.4v1.3
					c0,0.1,0,0.3-0.2,0.4c-0.1,0.1-0.2,0.1-0.4,0.1h-1c-0.2,0-0.3,0-0.4-0.1c-0.1-0.1-0.2-0.2-0.2-0.4V207.9z"/>
				<path class="st3" d="M295.9,220.7c0-0.3,0.2-0.4,0.4-0.4h7.9c0.2,0,0.3,0,0.5,0c0.2,0,0.4,0,0.5-0.1c0.2-0.1,0.3-0.1,0.4-0.3
					c0.1-0.1,0.2-0.3,0.2-0.5V205c0-0.1,0-0.2,0.1-0.3s0.2-0.1,0.3-0.1h1.2c0.1,0,0.2,0,0.3,0.1s0.1,0.2,0.1,0.3v14.7
					c0,0.1,0.1,0.2,0.3,0.3c0.2,0.1,0.3,0.1,0.5,0.2c0.2,0,0.4,0.1,0.6,0.1c0.2,0,0.3,0,0.5,0h0.4v2h-0.3c-0.5,0-1-0.1-1.5-0.2
					c-0.5-0.1-1-0.3-1.4-0.6c-0.4,0.3-0.9,0.5-1.4,0.6c-0.5,0.1-1,0.1-1.5,0.1h-7.8c-0.3,0-0.4-0.1-0.4-0.4V220.7z M298.3,228
					c-0.3,0-0.4-0.1-0.4-0.3v-0.4c0-0.2,0.1-0.2,0.4-0.2h0.4c-0.1-0.2-0.2-0.4-0.3-0.6c-0.1-0.2-0.1-0.5-0.1-0.7
					c0-0.7,0.2-1.1,0.6-1.5c0.4-0.3,0.9-0.5,1.6-0.5c0.1,0,0.3,0,0.4,0c0.2,0,0.3,0,0.5,0.1c0.2,0.1,0.3,0.2,0.3,0.3v0.3
					c0,0.2-0.1,0.3-0.3,0.3c0,0-0.1,0-0.3,0s-0.3,0-0.4,0c-0.8,0-1.3,0.4-1.3,1.1c0,0.3,0.1,0.6,0.2,0.8c0.1,0.2,0.2,0.4,0.4,0.4
					h1.6c0.3,0,0.4,0.1,0.4,0.3v0.4c0,0.1,0,0.2-0.1,0.2c-0.1,0-0.2,0-0.3,0H298.3z M299,206.4c0-0.1,0-0.2,0.1-0.3s0.2-0.1,0.3-0.1
					h1.2c0.3,0,0.4,0.1,0.4,0.4v11.2c0,0.1,0,0.2-0.1,0.3c-0.1,0.1-0.2,0.1-0.3,0.1h-1.1c-0.1,0-0.2,0-0.3-0.1
					c-0.1-0.1-0.1-0.2-0.1-0.3V206.4z"/>
				<path class="st3" d="M309.2,220.5c0-0.1,0.1-0.2,0.2-0.2c0.2-0.1,0.3-0.1,0.6-0.1h1.9c0.5,0,0.7,0,0.9-0.1
					c0.1-0.1,0.2-0.3,0.2-0.7V205c0-0.1,0-0.2,0.1-0.3c0.1-0.1,0.2-0.1,0.3-0.1h1.2c0.1,0,0.2,0,0.3,0.1c0.1,0.1,0.1,0.2,0.1,0.3
					v13.6c0,0.2,0,0.4,0,0.6c0,0.2,0,0.5,0,0.7c0,0.3,0,0.5,0,0.7c0,0.2,0,0.4-0.1,0.6c0,0.2-0.1,0.3-0.1,0.4
					c-0.1,0.1-0.2,0.2-0.4,0.3c-0.1,0-0.3,0.1-0.5,0.1c-0.2,0-0.5,0-0.8,0.1c-0.3,0-0.6,0-0.9,0c-0.3,0-0.6,0-0.9,0H310
					c-0.2,0-0.4,0-0.6-0.1c-0.2-0.1-0.2-0.1-0.2-0.2V220.5z"/>
			</g>
		</g>
	</g>
</g>
</svg>
