<?xml version="1.0" standalone="no"?>
<!DOCTYPE svg PUBLIC "-//W3C//DTD SVG 20010904//EN"
 "http://www.w3.org/TR/2001/REC-SVG-20010904/DTD/svg10.dtd">
<svg version="1.0" xmlns="http://www.w3.org/2000/svg"
 width="821.000000pt" height="1201.000000pt" viewBox="0 0 821.000000 1201.000000"
 preserveAspectRatio="xMidYMid meet">

<g transform="translate(0.000000,1201.000000) scale(0.100000,-0.100000)"
fill="#000000" stroke="none">
<path d="M3851 11989 c-889 -56 -1741 -406 -2416 -990 -138 -120 -383 -372
-493 -507 -438 -539 -734 -1177 -856 -1842 -51 -282 -60 -393 -61 -745 0 -398
19 -605 91 -985 315 -1667 1425 -3765 3118 -5895 296 -372 857 -1020 876
-1013 11 4 322 346 470 518 818 944 1663 2129 2242 3145 440 772 775 1498
1005 2180 180 536 290 1016 350 1530 25 218 25 794 0 990 -67 517 -193 931
-418 1375 -208 411 -452 744 -785 1071 -216 211 -371 338 -610 497 -733 489
-1626 728 -2513 671z m633 -854 c1265 -148 2322 -1014 2721 -2230 241 -733
201 -1599 -121 -2624 -220 -698 -610 -1540 -1087 -2346 -415 -702 -942 -1469
-1496 -2175 -116 -148 -344 -431 -381 -473 -18 -21 -629 770 -995 1288 -1189
1682 -1942 3229 -2179 4475 -64 333 -86 553 -86 850 0 522 107 982 336 1445
313 634 828 1151 1463 1469 399 200 804 307 1291 340 97 7 410 -5 534 -19z"/>
<path d="M3895 9674 c-543 -80 -977 -351 -1274 -797 -70 -103 -162 -297 -205
-427 -246 -757 48 -1591 719 -2033 590 -388 1360 -388 1950 0 671 442 966
1276 719 2033 -37 111 -124 301 -177 385 -265 421 -668 706 -1149 811 -109 24
-147 27 -338 30 -118 1 -228 0 -245 -2z m381 -845 c188 -33 362 -125 499 -263
395 -398 357 -1048 -80 -1396 -490 -389 -1232 -193 -1456 385 -214 550 104
1143 681 1271 69 15 277 17 356 3z"/>
</g>
</svg>
