<?xml version="1.0" encoding="utf-8"?>
<!-- Generator: Adobe Illustrator 26.5.0, SVG Export Plug-In . SVG Version: 6.00 Build 0)  -->
<svg version="1.1" id="Layer_1" xmlns="http://www.w3.org/2000/svg" xmlns:xlink="http://www.w3.org/1999/xlink" x="0px" y="0px"
	 viewBox="0 0 50 50" style="enable-background:new 0 0 50 50;" xml:space="preserve">

<g>
	<path class="st0" d="M28.4,23.7c3.3,1.2,5.7,2.5,7.1,4.1c1.4,1.5,2.1,3.6,2.1,6.2c0,3.1-1.2,5.6-3.6,7.4c-2.4,1.8-5.8,2.7-10.2,2.7
		h-0.8l-0.7,4.9h-2.6l0.8-5c-2.9-0.3-5.7-1-8.2-2.1V33H15l0.5,6.1c2.1,0.6,3.9,1.1,5.6,1.2l2.1-14.2l-0.9-0.3
		c-3.4-1.2-5.8-2.6-7.2-4.1c-1.5-1.6-2.2-3.6-2.2-6.1c0-3,1.2-5.3,3.6-7.1c2.4-1.7,5.7-2.6,9.9-2.6l0.7-4.8h2.5L28.8,6
		c2.7,0.1,5,0.6,7,1.3v8.7h-2.7l-0.6-5.9c-1.1-0.3-2.5-0.6-4.2-0.7l-2,13.5L28.4,23.7z M16.8,15.1c0,1.7,0.5,3,1.6,4
		c1.1,1,2.9,2,5.4,3l1.9-12.7c-2.8,0-5,0.6-6.6,1.6C17.6,12,16.8,13.4,16.8,15.1z M24.2,40.5c3,0,5.3-0.5,7-1.6
		c1.6-1.1,2.4-2.6,2.4-4.6c0-1.7-0.5-3.1-1.5-4c-1-0.9-2.8-1.9-5.5-2.9L25.5,27l-1.9,13.5H24.2z"/>
</g>
</svg>
