<?xml version="1.0" encoding="utf-8"?>
<!-- Generator: Adobe Illustrator 26.4.1, SVG Export Plug-In . SVG Version: 6.00 Build 0)  -->
<svg version="1.1" id="Layer_1" xmlns="http://www.w3.org/2000/svg" xmlns:xlink="http://www.w3.org/1999/xlink" x="0px" y="0px"
	 viewBox="0 0 50 50" style="enable-background:new 0 0 50 50;" xml:space="preserve">

<g>
	<g>
		<path class="st0" d="M49.05,11.99c0,10.18,0,20.36,0,30.54c-0.02,0.04-0.06,0.08-0.07,0.12c-0.6,2.96-2.67,4.66-5.69,4.66
			c-12.2,0-24.39,0-36.59-0.01c-0.5,0-1.01-0.03-1.49-0.14c-2.6-0.59-4.27-2.76-4.27-5.5c0-11.41,0-22.83,0-34.24
			c0-1.75,0.83-2.58,2.6-2.58c12.49,0,24.99,0,37.48,0c0.16,0,0.31,0,0.47,0.01c1.23,0.08,2.09,0.97,2.11,2.2
			c0.02,0.92,0,1.85,0,2.77c0,0.15,0,0.3,0,0.47c1.11,0,2.14,0,3.17,0c0.85,0,1.51,0.35,1.96,1.08
			C48.86,11.58,48.95,11.79,49.05,11.99z M43.61,12.5c0,0.18,0,0.3,0,0.43c0,9,0,18.01,0,27.01c0,0.65,0.06,0.72,0.77,0.89
			c0.56,0.13,0.88,0.57,0.84,1.13c-0.04,0.53-0.42,0.93-0.97,0.97c-0.26,0.02-0.53-0.01-0.79-0.07c-1.31-0.35-2.02-1.39-2.02-2.9
			c0-10.76,0-21.52,0-32.27c0-0.2,0-0.4,0-0.61c-12.8,0-25.53,0-38.3,0C3.13,7.24,3.12,7.39,3.12,7.54c0,11.35,0,22.71,0,34.06
			c0,2.15,1.37,3.54,3.52,3.54c12.25,0.01,24.49,0.01,36.74,0c2.14,0,3.51-1.4,3.51-3.54c0-9.54,0-19.07,0-28.61
			c0-0.16-0.01-0.33-0.02-0.49C45.76,12.5,44.71,12.5,43.61,12.5z"/>
		<path class="st0" d="M14.05,16.84c1.72,0,3.44,0,5.17,0c1.05,0,1.43,0.39,1.44,1.45c0,3.41,0,6.83,0,10.24
			c0,1.08-0.39,1.48-1.46,1.48c-3.43,0-6.86,0-10.29,0c-1.03,0-1.43-0.4-1.43-1.41c0-3.44,0-6.89,0-10.33
			c0-1.06,0.37-1.43,1.45-1.43C10.64,16.84,12.34,16.84,14.05,16.84z M18.43,27.8c0-2.93,0-5.83,0-8.74c-2.94,0-5.84,0-8.75,0
			c0,2.93,0,5.82,0,8.74C12.61,27.8,15.51,27.8,18.43,27.8z"/>
		<path class="st0" d="M22.28,11.4c4.41,0,8.83,0,13.24,0c0.23,0,0.47,0,0.7,0.04c0.48,0.08,0.82,0.51,0.84,1
			c0.02,0.48-0.29,0.94-0.76,1.06c-0.21,0.05-0.43,0.08-0.65,0.08c-8.92,0-17.84,0-26.77,0c-0.86,0-1.34-0.35-1.39-1
			c-0.05-0.59,0.33-1.07,0.93-1.15c0.2-0.03,0.41-0.03,0.61-0.03C13.45,11.4,17.87,11.4,22.28,11.4z"/>
		<path class="st0" d="M30.49,24.46c-1.75,0-3.51,0.01-5.26,0c-0.9-0.01-1.4-0.53-1.27-1.29c0.08-0.45,0.35-0.73,0.78-0.83
			c0.19-0.05,0.4-0.06,0.61-0.06c3.43,0,6.86,0,10.29,0c0.06,0,0.13,0,0.19,0c0.79,0.03,1.26,0.45,1.25,1.1
			c-0.01,0.65-0.48,1.08-1.27,1.08C34.02,24.47,32.25,24.46,30.49,24.46z"/>
		<path class="st0" d="M30.5,29.9c-1.74,0-3.48,0-5.21,0c-0.47,0-0.9-0.07-1.19-0.51c-0.39-0.6-0.07-1.44,0.63-1.6
			c0.2-0.05,0.4-0.07,0.6-0.07c3.44,0,6.89,0,10.33,0c0.84,0,1.3,0.32,1.38,0.95c0.08,0.59-0.28,1.08-0.87,1.18
			c-0.2,0.03-0.4,0.04-0.61,0.05C33.88,29.9,32.19,29.9,30.5,29.9z"/>
		<path class="st0" d="M30.5,16.84c1.75,0,3.51,0,5.26,0c0.79,0,1.24,0.36,1.3,0.99c0.05,0.53-0.27,0.99-0.79,1.12
			c-0.2,0.05-0.4,0.07-0.6,0.07c-3.44,0-6.89,0.01-10.33-0.01c-0.33,0-0.69-0.09-0.97-0.25c-0.41-0.23-0.5-0.66-0.39-1.11
			c0.1-0.41,0.38-0.68,0.8-0.76c0.21-0.04,0.44-0.05,0.65-0.05C27.12,16.84,28.81,16.84,30.5,16.84z"/>
		<path class="st0" d="M30.5,35.34c-1.75,0-3.51,0-5.26,0c-0.79,0-1.24-0.36-1.3-0.99c-0.05-0.53,0.27-0.99,0.79-1.12
			c0.2-0.05,0.4-0.07,0.6-0.07c3.44,0,6.89,0,10.33,0c0.46,0,0.91,0.05,1.2,0.48c0.45,0.65,0.1,1.54-0.69,1.66
			c-0.4,0.06-0.81,0.04-1.22,0.04C33.47,35.34,31.98,35.34,30.5,35.34z"/>
		<path class="st0" d="M14.04,40.77c-1.77,0-3.54,0.01-5.31,0c-0.75,0-1.19-0.38-1.23-1.01c-0.03-0.54,0.28-0.97,0.81-1.1
			c0.17-0.04,0.34-0.06,0.51-0.06c3.49,0,6.98-0.01,10.47,0c0.89,0,1.41,0.48,1.32,1.2c-0.07,0.59-0.47,0.95-1.13,0.96
			c-1.05,0.02-2.1,0.01-3.15,0.01C15.58,40.77,14.81,40.77,14.04,40.77z"/>
		<path class="st0" d="M30.49,40.77c-1.77,0-3.54,0.01-5.31,0c-0.75,0-1.2-0.37-1.25-0.99c-0.05-0.53,0.27-0.99,0.79-1.11
			c0.23-0.05,0.46-0.07,0.7-0.07c3.38,0,6.76,0,10.14,0c0.25,0,0.5,0.02,0.74,0.08c0.46,0.12,0.77,0.58,0.75,1.06
			c-0.02,0.49-0.37,0.91-0.84,0.99c-0.2,0.04-0.4,0.04-0.61,0.04C33.91,40.78,32.2,40.77,30.49,40.77z"/>
		<path class="st0" d="M14.05,35.34c-1.75,0-3.51,0-5.26,0c-0.75,0-1.19-0.33-1.28-0.91c-0.09-0.6,0.23-1.08,0.83-1.21
			c0.18-0.04,0.37-0.06,0.56-0.06c3.44,0,6.89,0,10.33,0c0.82,0,1.26,0.3,1.37,0.92c0.1,0.6-0.26,1.16-0.87,1.22
			c-0.57,0.06-1.16,0.04-1.73,0.04C16.68,35.34,15.37,35.34,14.05,35.34z"/>
	</g>
</g>
</svg>
