<?xml version="1.0" encoding="utf-8"?>
<!-- Generator: Adobe Illustrator 26.5.0, SVG Export Plug-In . SVG Version: 6.00 Build 0)  -->
<svg version="1.1" id="Layer_1" xmlns="http://www.w3.org/2000/svg" xmlns:xlink="http://www.w3.org/1999/xlink" x="0px" y="0px"
	 viewBox="0 0 50 50" style="enable-background:new 0 0 50 50;" xml:space="preserve">

<g>
	<path class="st0" d="M34.9,25c6.2,0,11.2,5,11.2,11.2c0,6.2-5,11.3-11.3,11.3c-6.2,0-11.2-5.1-11.2-11.2C23.6,30,28.6,25,34.9,25z
		 M32.9,39.3c-0.2-0.2-0.3-0.5-0.4-0.6c-1.1-1.1-2.2-2.2-3.3-3.3c-0.6-0.6-1.5-0.6-2-0.1c-0.6,0.6-0.6,1.4,0,2
		c1.6,1.6,3.2,3.3,4.9,4.9c0.6,0.6,1.5,0.6,2.1,0c2.9-2.8,5.7-5.7,8.6-8.6c0.2-0.2,0.4-0.6,0.4-0.9c0.1-0.6-0.2-1.1-0.8-1.4
		c-0.6-0.3-1.2-0.2-1.7,0.3c-1.7,1.7-3.5,3.5-5.2,5.2C34.6,37.6,33.8,38.4,32.9,39.3z"/>
	<path class="st0" d="M26.3,47.5c-0.1,0-0.3,0-0.4,0c-5.8,0-11.7,0-17.5,0c-0.6,0-1.2-0.1-1.7-0.2c-1.7-0.5-2.7-2-2.7-3.9
		c0-3,0-5.9,0-8.9c0-8.3,0-16.6,0-24.8c0-0.5,0-0.9,0.1-1.4c0.3-1.7,1.5-2.9,3.3-3.1c1.7-0.1,3.4-0.1,5.1-0.1c0.5,0,0.9,0.5,1.1,1.1
		c0.3,1.1-0.4,1.9-1.5,1.9c-1,0-1.9,0-2.9,0c-1.4,0-2,0.6-2,2c0,1.6,0,3.3,0,4.9c0,9,0,18,0,27c0,0.4,0,0.7,0.1,1.1
		c0.1,0.8,0.6,1.3,1.4,1.4c0.9,0.1,1.9,0.1,2.8,0.1c4,0,7.9,0,11.9,0c0.3,0,0.5,0.1,0.8,0.4C24.7,45.9,25.5,46.7,26.3,47.5z"/>
	<path class="st0" d="M29.5,11c0.2,0,0.4,0,0.6,0c1.2,0,2.4,0,3.5,0c1.3,0,2.1,1,2.1,2.3c0,1.3-0.9,2.3-2.2,2.3c-6.7,0-13.3,0-20,0
		c-1.3,0-2.2-1-2.2-2.3c0-1.3,0.9-2.3,2.1-2.4c1.2,0,2.4,0,3.6,0c0.2,0,0.3,0,0.6,0c0-0.8,0-1.6,0-2.4c0-0.9,0-1.7,0-2.6
		c0-1.9,1.5-3.5,3.4-3.5c1.7,0,3.3,0,5,0c1.8,0,3.3,1.6,3.4,3.4c0,1.4,0,2.9,0,4.3C29.5,10.5,29.5,10.7,29.5,11z M25.9,7
		c0-1.3-1-2.3-2.3-2.3c-1.3,0-2.3,1-2.3,2.3c0,1.3,1.1,2.4,2.4,2.3C24.9,9.4,25.9,8.3,25.9,7z"/>
	<path class="st0" d="M33.4,22.1c-1.3,0.4-2.6,0.7-3.9,1.2c-1.8,0.7-3.4,1.8-4.7,3.2c-0.2,0.2-0.5,0.3-0.7,0.3c-3.5,0-7,0-10.4,0
		c-1.3,0-2.1-0.9-2.2-2.2c0-1.4,0.8-2.4,2.1-2.4c6.5,0,13.1,0,19.6,0C33.2,22.2,33.3,22.2,33.4,22.1C33.4,22.2,33.4,22.1,33.4,22.1z
		"/>
	<path class="st0" d="M43.3,24.9c-0.9-0.5-1.9-1-2.8-1.6c-0.1-0.1-0.1-0.3-0.1-0.5c0-3.4,0-6.9,0-10.3c0-0.8,0-1.6,0-2.4
		c0-1.5-0.5-2-2-2c-1,0-2.1,0-3.1,0c-0.8,0-1.4-0.6-1.4-1.4c0-0.9,0.6-1.6,1.4-1.6c1.5,0,3-0.1,4.5,0.1c2.1,0.2,3.5,1.7,3.6,3.8
		c0.1,2.7,0,5.3,0,8c0,2.6,0,5.1,0,7.7C43.3,24.7,43.3,24.8,43.3,24.9z"/>
	<path class="st0" d="M20.6,36.5c-0.6,0-1.2,0-1.9,0c-1.7,0-3.4,0-5.2,0c-1.3,0-2.2-0.9-2.2-2.3c0-1.4,0.9-2.3,2.2-2.3
		c2.5,0,5,0,7.5,0c0.1,0,0.2,0,0.3,0C21.1,33.4,20.9,34.9,20.6,36.5z"/>
</g>
</svg>
