<?xml version="1.0" encoding="utf-8"?>
<!-- Generator: Adobe Illustrator 26.4.1, SVG Export Plug-In . SVG Version: 6.00 Build 0)  -->
<svg version="1.1" id="Layer_1" xmlns="http://www.w3.org/2000/svg" xmlns:xlink="http://www.w3.org/1999/xlink" x="0px" y="0px"
	 viewBox="0 0 50 50" style="enable-background:new 0 0 50 50;" xml:space="preserve">

<g>
	<path class="st0" d="M12.35,49.36c-0.51-0.31-0.65-0.78-0.65-1.36c0.02-2.65,0-5.3,0.02-7.94c0-0.41-0.08-0.6-0.52-0.71
		c-1.8-0.45-3.58-0.94-5.37-1.42c-0.83-0.22-1.08-0.64-0.85-1.49c2.79-10.41,5.58-20.82,8.37-31.23c0.26-0.97,0.63-1.17,1.6-0.91
		c4.17,1.12,8.35,2.24,12.52,3.36c0.08,0.02,0.15,0.03,0.26,0.05c0.04-0.1,0.09-0.19,0.12-0.29c0.56-1.87,1.78-3.05,3.67-3.56
		c0.19-0.05,0.4-0.24,0.48-0.42c0.82-1.87,2.72-3.01,4.65-2.76c2.05,0.27,3.68,1.84,3.94,3.81c0.28,2.06-0.81,4.01-2.74,4.78
		c-0.52,0.2-0.38,0.62-0.58,0.99c0.33,0.1,0.62,0.19,0.92,0.27c1.96,0.52,3.92,1.04,5.87,1.56c0.96,0.26,1.21,0.64,0.92,1.59
		c-0.39,1.27-0.51,2.55-0.51,3.88c0.02,10.15,0.01,20.29,0.02,30.44c0,0.59-0.14,1.05-0.67,1.35
		C33.34,49.36,22.84,49.36,12.35,49.36z M15.02,6.29c-2.68,10-5.35,19.96-8.03,29.97c7.36,1.97,14.67,3.93,22,5.89
		c0.05-0.14,0.08-0.22,0.11-0.31c0.41-1.51,0.81-3.03,1.22-4.54c0.21-0.77,0.62-1.01,1.38-0.81c0.92,0.24,1.84,0.49,2.75,0.73
		c0.7,0.19,1.4,0.37,2.13,0.56c2.15-8.02,4.29-16,6.42-23.96c-0.09-0.04-0.13-0.07-0.18-0.08c-2.08-0.56-4.16-1.11-6.23-1.69
		c-0.29-0.08-0.43,0.06-0.61,0.22c-1.48,1.31-3.21,1.76-5.02,0.99c-0.95-0.41-1.47-0.29-2.07,0.46c-0.37,0.46-0.96,0.43-1.35,0.05
		c-0.39-0.37-0.38-0.96,0.04-1.4c0.31-0.31,0.65-0.6,0.92-0.85c-0.24-0.57-0.41-1.04-0.64-1.49c-0.08-0.17-0.25-0.37-0.42-0.41
		c-2.87-0.78-5.75-1.55-8.62-2.31C17.56,6.97,16.31,6.64,15.02,6.29z M13.65,40.02c0,2.52,0,4.97,0,7.4c9.67,0,19.3,0,28.93,0
		c0-8.15,0-16.26,0-24.37c-0.1,0.13-0.15,0.27-0.19,0.42c-1.38,5.15-2.77,10.3-4.14,15.45c-0.12,0.46-0.36,0.78-0.77,1.02
		c-2.36,1.35-4.72,2.71-7.08,4.08c-0.4,0.23-0.78,0.28-1.22,0.16c-3.8-1.03-7.61-2.05-11.41-3.07
		C16.4,40.74,15.05,40.39,13.65,40.02z M36.16,7.71c1.45-0.01,2.58-1.15,2.57-2.6c-0.02-1.42-1.17-2.56-2.58-2.55
		c-1.43,0.01-2.59,1.19-2.58,2.61C33.58,6.58,34.74,7.72,36.16,7.71z M35.49,9.6c-2.06-0.46-3.35-1.7-3.78-3.77
		c-1.22,0.27-2.17,1.58-2.13,2.92c0.05,1.45,1.11,2.67,2.53,2.92C33.54,11.92,34.91,11.11,35.49,9.6z M31.2,41.35
		c1.25-0.72,2.37-1.37,3.58-2.07c-0.99-0.27-1.89-0.51-2.82-0.76C31.71,39.44,31.48,40.32,31.2,41.35z"/>
	<path class="st0" d="M36.63,22.71c0,0.66-0.57,1.07-1.25,0.89c-1.84-0.48-3.67-0.97-5.5-1.47c-4.36-1.17-8.71-2.34-13.06-3.51
		c-0.57-0.15-0.85-0.46-0.85-0.93c0-0.45,0.21-0.77,0.63-0.9c0.2-0.06,0.44-0.06,0.65-0.01c6.18,1.64,12.35,3.3,18.52,4.95
		C36.37,21.91,36.63,22.22,36.63,22.71z"/>
	<path class="st0" d="M15.87,20.39c0.62,0.16,1.2,0.31,1.78,0.46c5.65,1.51,11.31,3.03,16.96,4.54c0.15,0.04,0.31,0.08,0.45,0.15
		c0.46,0.2,0.68,0.68,0.54,1.13c-0.15,0.48-0.61,0.78-1.11,0.66c-1.07-0.27-2.14-0.56-3.21-0.85c-5.13-1.38-10.27-2.75-15.41-4.13
		c-0.42-0.11-0.84-0.28-0.87-0.75c-0.02-0.31,0.13-0.66,0.29-0.93C15.4,20.51,15.68,20.47,15.87,20.39z"/>
	<path class="st0" d="M21.11,26.34c0.01,0.77-0.53,1.19-1.23,1.03c-0.58-0.13-1.16-0.31-1.74-0.46c-1.11-0.3-2.23-0.59-3.34-0.89
		c-0.72-0.2-1.03-0.83-0.72-1.41c0.23-0.42,0.66-0.57,1.24-0.42c1.34,0.35,2.69,0.72,4.03,1.08c0.37,0.1,0.74,0.19,1.1,0.3
		C20.87,25.7,21.09,26,21.11,26.34z"/>
	<path class="st0" d="M23.37,27.58c0-0.51,0.41-0.94,0.92-0.95c0.52-0.01,0.98,0.43,0.98,0.95c0,0.52-0.45,0.96-0.98,0.95
		C23.77,28.51,23.37,28.1,23.37,27.58z"/>
</g>
</svg>
