<?xml version="1.0" encoding="utf-8"?>
<!-- Generator: Adobe Illustrator 26.4.1, SVG Export Plug-In . SVG Version: 6.00 Build 0)  -->
<svg version="1.1" id="Layer_1" xmlns="http://www.w3.org/2000/svg" xmlns:xlink="http://www.w3.org/1999/xlink" x="0px" y="0px"
	 viewBox="0 0 50 50" style="enable-background:new 0 0 50 50;" xml:space="preserve">

<g>
	<path class="st0" d="M12.29,8.45c-0.02,0.3-0.03,0.51,0.29,0.67c0.48,0.24,0.5,0.91,0.06,1.22c-0.18,0.13-0.21,0.26-0.19,0.44
		c0.18,2.47,0.35,4.93,0.54,7.4c0.06,0.73-0.14,1.39-0.38,2.06c-0.11,0.3-0.22,0.61-0.36,1c-0.13-0.17-0.2-0.24-0.23-0.32
		c-0.41-1.1-0.7-2.2-0.57-3.42c0.22-2.22,0.33-4.46,0.5-6.68c0.02-0.22-0.03-0.36-0.22-0.51c-0.43-0.33-0.38-0.99,0.12-1.22
		c0.3-0.14,0.28-0.38,0.27-0.59c0-0.1-0.2-0.21-0.33-0.29c-0.18-0.1-0.38-0.16-0.56-0.25c-0.29-0.14-0.63-0.29-0.62-0.67
		c0.01-0.38,0.34-0.52,0.64-0.65c0.26-0.12,0.53-0.23,0.79-0.34c3.76-1.63,7.51-3.26,11.27-4.88c1.11-0.48,2.24-0.48,3.34,0
		c4.01,1.73,8.02,3.47,12.03,5.21c0.32,0.14,0.69,0.28,0.68,0.7c-0.01,0.39-0.36,0.53-0.67,0.67c-1.29,0.56-2.58,1.13-3.88,1.67
		c-0.23,0.09-0.29,0.21-0.29,0.45c0.01,1-0.01,2.01,0.02,3.01c0.01,0.35,0.12,0.7,0.19,1.05c0.23,1.14,0.3,2.3,0.24,3.46
		c-0.01,0.21,0.02,0.36,0.2,0.52c0.37,0.34,0.45,0.84,0.49,1.31c0.1,1.29-0.1,2.53-0.72,3.67c-0.19,0.35-0.54,0.62-0.8,0.93
		c-0.1,0.11-0.18,0.25-0.24,0.38c-0.88,2.18-2.08,4.17-3.8,5.8c-1.17,1.11-2.51,1.96-4.13,2.24c-1.85,0.33-3.5-0.2-5-1.26
		c-2.05-1.44-3.44-3.42-4.51-5.65c-0.17-0.35-0.32-0.72-0.47-1.08c-0.09-0.21-0.23-0.34-0.42-0.49c-0.29-0.22-0.56-0.53-0.73-0.86
		c-0.65-1.25-0.89-2.59-0.68-3.99c0.07-0.46,0.18-0.92,0.66-1.17c0.06-0.03,0.1-0.15,0.11-0.24c0.16-1.22,0.33-2.44,0.47-3.66
		c0.06-0.53,0.05-1.07,0.05-1.61c0.01-0.81,0.01-1.63,0-2.44c0-0.11-0.06-0.28-0.14-0.32C14.3,9.32,13.31,8.89,12.29,8.45z"/>
	<path class="st0" d="M17.62,32.47c0.54,1.3,1.43,2.34,2.3,3.38c0.98,1.17,2.01,2.3,3.03,3.45c0.05,0.06,0.12,0.11,0.2,0.19
		c0.29-1.15,0.58-2.25,0.86-3.36c0.02-0.07-0.02-0.19-0.07-0.24c-0.59-0.51-0.69-1.19-0.7-1.95c1.16,0,2.29,0,3.47,0
		c0.02,0.71-0.09,1.37-0.63,1.9c-0.08,0.08-0.16,0.23-0.14,0.32c0.27,1.1,0.56,2.2,0.87,3.38c1.99-2.29,4.13-4.38,5.58-7.07
		c1.66,0.19,3.37,0.35,5.06,0.59c1.98,0.28,3.49,1.36,4.68,2.91c1.26,1.64,2.05,3.5,2.55,5.49c0.37,1.47,0,3.19-1.64,4.3
		c-1.38,0.94-2.93,1.44-4.52,1.84c-2.34,0.58-4.72,0.88-7.11,1.08c-3.05,0.25-6.11,0.3-9.17,0.2c-3.51-0.11-7.01-0.4-10.45-1.2
		c-1.46-0.34-2.88-0.77-4.2-1.5c-1.22-0.67-2.19-1.57-2.36-3.04C5.17,42.59,5.14,42,5.28,41.47c0.51-2.02,1.32-3.91,2.6-5.58
		c1.36-1.78,3.18-2.74,5.39-2.99c1.07-0.12,2.14-0.18,3.21-0.28C16.85,32.58,17.23,32.52,17.62,32.47z"/>
</g>
</svg>
