<?xml version="1.0" encoding="utf-8"?>
<!-- Generator: Adobe Illustrator 26.5.0, SVG Export Plug-In . SVG Version: 6.00 Build 0)  -->
<svg version="1.1" id="Layer_1" xmlns="http://www.w3.org/2000/svg" xmlns:xlink="http://www.w3.org/1999/xlink" x="0px" y="0px"
	 viewBox="0 0 50 50" style="enable-background:new 0 0 50 50;" xml:space="preserve">

<g>
	<path class="st0" d="M47.4,34.3c-0.1,0.3-0.2,0.6-0.4,0.9c-0.5,0.7-1.2,0.9-2,0.9c-2.8,0-5.6,0-8.4,0c-0.2,0-0.3,0-0.6,0
		c0.1,0.2,0.2,0.3,0.2,0.4c1.8,2.9,3.5,5.9,5.3,8.8c0.2,0.4,0.4,0.8,0.2,1.2c-0.3,0.8-1.3,0.9-1.8,0.3c-0.1-0.1-0.2-0.3-0.3-0.5
		c-1.4-2.3-2.7-4.6-4.1-6.8c-0.1-0.1-0.2-0.3-0.3-0.4c0,0.1,0,0.3,0,0.4c0,2.2,0,4.3,0,6.5c0,0.6-0.4,1-0.9,1.1
		c-0.5,0.1-1-0.2-1.2-0.7c-0.1-0.2-0.1-0.5-0.1-0.7c0-2.1,0-4.2,0-6.2c0-0.1,0-0.3,0-0.4c0,0-0.1,0-0.1,0c-0.1,0.1-0.2,0.2-0.2,0.4
		c-1.4,2.3-2.8,4.6-4.2,7c-0.1,0.2-0.3,0.4-0.5,0.6c-0.4,0.3-1,0.3-1.4-0.1c-0.4-0.3-0.5-0.9-0.3-1.4c0.2-0.3,0.4-0.6,0.5-0.9
		c1.6-2.7,3.3-5.4,4.9-8.2c0.1-0.1,0.2-0.3,0.3-0.5c-0.2,0-0.4,0-0.5,0c-2.8,0-5.6,0-8.4,0c-1.6,0-2.5-0.9-2.5-2.5c0-1,0-1.9,0-2.9
		c0.7,0.2,1.4,0.3,2.1,0.5c0.1,0,0.2,0.2,0.2,0.4c0,0.7,0,1.5,0,2.3c7.5,0,14.9,0,22.3,0c0-5.9,0-11.8,0-17.8c-7.4,0-14.8,0-22.3,0
		c0,0.9,0,1.8,0,2.8c-0.8-0.4-1.5-0.7-2.1-1.1c-0.1,0-0.1-0.2-0.1-0.3c0-0.5,0-1,0-1.5c0-1.1,0.9-2,2-2.1c0.2,0,0.4,0,0.6,0
		c7.1,0,14.2,0,21.4,0c1.4,0,2.4,0.5,2.8,1.8C47.4,21.9,47.4,28.1,47.4,34.3z"/>
	<path class="st0" d="M12.3,2.6c0.2,0.1,0.4,0.1,0.7,0.2c3.3,0.7,5.4,3.5,5.3,7c-0.1,3.1-2.6,5.7-5.7,6.2c-4,0.6-7.8-2.7-7.7-6.8
		c0.1-3.3,2.4-6,5.8-6.5c0.1,0,0.1,0,0.2-0.1C11.3,2.6,11.8,2.6,12.3,2.6z M16,9.4c0.1-2.4-1.9-4.5-4.3-4.6C9.3,4.8,7.2,6.7,7.1,9.2
		C7,11.6,9,13.7,11.3,13.8C13.9,13.9,15.9,12,16,9.4z"/>
	<path class="st0" d="M18,27.8c-0.1,0.7-0.2,1.4-0.2,2.1c-0.4,3.6-0.8,7.2-1.2,10.8c-0.2,1.6-0.3,3.2-0.5,4.7
		c-0.2,1.1-1,1.9-2.2,1.9c-1.5,0-3,0-4.5,0c-1.3,0-2.2-0.9-2.3-2.3c-0.2-3.2-0.5-6.5-0.8-9.7c0-0.1,0-0.1,0-0.3c-0.4,0-0.8,0-1.3,0
		c-1.6,0-2.6-1.2-2.3-2.8c0.7-4,1.5-8,2.2-12.1C5.1,19,6,18.3,7.2,18.3c2.9,0,5.8,0,8.7,0c0.4,0,0.9,0.1,1.3,0.3
		c2.9,1.4,5.7,2.8,8.6,4.3c0.6,0.3,1.1,0.4,1.8,0.2c4.2-1.2,8.3-2.4,12.5-3.6c0.8-0.2,1.3,0,1.6,0.5c0.3,0.6,0,1.3-0.8,1.6
		c-1.4,0.4-2.8,0.8-4.2,1.2c-3,0.9-6,1.7-9.1,2.6c-0.3,0.1-0.4,0.2-0.4,0.5c0,0.5,0,1,0,1.5c-0.2,1.4-1.3,2.3-2.7,2
		c-1.9-0.4-3.7-0.9-5.6-1.4C18.6,27.9,18.3,27.9,18,27.8z M12.7,20.5c0,0.2,0,0.4,0,0.5c0,2.1,0,4.1,0,6.2c0,0.8-0.6,1.3-1.3,1.2
		c-0.6-0.1-0.9-0.6-0.9-1.3c0-2,0-4,0-6.1c0-0.2,0-0.3,0-0.5c-1.1,0-2.2,0-3.4,0c-0.7,4.1-1.5,8.2-2.2,12.3c1.2,0,2.3,0,3.5,0
		c0.3,4.1,0.7,8.2,1,12.3c1.5,0,3,0,4.5,0c0.7-6.7,1.5-13.4,2.2-20.1c3,0.8,6,1.5,8.9,2.2c0-0.7,0-1.3,0-1.8c0-0.3-0.1-0.4-0.3-0.6
		c-2.8-1.4-5.5-2.8-8.3-4.1c-0.1-0.1-0.3-0.1-0.4-0.1C14.9,20.5,13.8,20.5,12.7,20.5z"/>
</g>
</svg>
