<?xml version="1.0" standalone="no"?>
<!DOCTYPE svg PUBLIC "-//W3C//DTD SVG 20010904//EN"
 "http://www.w3.org/TR/2001/REC-SVG-20010904/DTD/svg10.dtd">
<svg version="1.0" xmlns="http://www.w3.org/2000/svg"
 width="225.000000pt" height="225.000000pt" viewBox="0 0 225.000000 225.000000"
 preserveAspectRatio="xMidYMid meet">

<g transform="translate(0.000000,225.000000) scale(0.100000,-0.100000)"
fill="#000000" stroke="none">
<path d="M267 2219 c-94 -22 -188 -104 -223 -194 -18 -48 -19 -86 -19 -905 l0
-855 26 -55 c33 -70 89 -126 159 -159 l55 -26 860 0 860 0 52 24 c66 29 143
111 169 176 18 47 19 81 19 638 l0 589 -24 19 c-29 24 -53 24 -82 0 l-24 -19
-5 -589 c-5 -584 -5 -588 -27 -623 -12 -20 -40 -46 -61 -58 l-40 -22 -837 0
-838 0 -44 25 c-26 16 -51 41 -63 65 -20 38 -20 59 -20 876 l0 836 22 40 c12
21 38 49 58 61 35 22 39 22 623 27 l589 5 20 24 c23 29 18 67 -14 94 -19 16
-61 17 -587 16 -311 -1 -583 -5 -604 -10z"/>
<path d="M1900 2217 c-26 -7 -62 -23 -80 -35 -19 -11 -293 -279 -608 -594
l-572 -573 -39 -225 c-21 -124 -38 -226 -37 -226 0 -1 102 16 226 37 l225 39
578 577 c639 640 631 630 630 749 -1 77 -28 138 -85 189 -69 63 -155 85 -238
62z m151 -166 c33 -32 39 -45 39 -80 0 -49 -17 -85 -57 -123 l-29 -28 -92 93
-92 93 32 31 c46 43 67 52 117 53 37 0 49 -5 82 -39z m-213 -397 c-648 -636
-918 -892 -944 -898 -86 -17 -157 -27 -161 -22 -10 10 27 178 44 200 10 12
227 237 483 499 l465 477 93 -93 92 -92 -72 -71z"/>
</g>
</svg>
