<?xml version="1.0" encoding="utf-8"?>
<!-- Generator: Adobe Illustrator 26.4.1, SVG Export Plug-In . SVG Version: 6.00 Build 0)  -->
<svg version="1.1" id="Layer_1" xmlns="http://www.w3.org/2000/svg" xmlns:xlink="http://www.w3.org/1999/xlink" x="0px" y="0px"
	 viewBox="0 0 50 50" style="enable-background:new 0 0 50 50;" xml:space="preserve">

<g>
	<path class="st0" d="M38.07,0.87c0.85,0.36,1.08,1.06,1,1.97c0.21,0,0.38,0,0.55,0c1.82,0,3.65,0,5.47,0
		c1.88,0.01,3.1,1.21,3.1,3.09c0,13.34,0,26.68,0,40.02c0,1.99-1.21,3.19-3.2,3.19c-13.33,0-26.65,0-39.98,0
		c-1.98,0-3.21-1.22-3.21-3.2c0-13.32,0-26.65,0-39.97c0-2.01,1.22-3.21,3.24-3.21c0.77,0,1.54-0.01,2.31,0
		c0.87,0.01,1.48,0.58,1.47,1.38c-0.01,0.81-0.59,1.4-1.45,1.41c-0.8,0.02-1.6,0.01-2.4,0c-0.28,0-0.38,0.1-0.38,0.38
		c0.01,2.56,0.01,5.12,0.01,7.76c0.21,0,0.41,0,0.6,0c11.85,0,23.7,0,35.55,0c0.17,0,0.35,0,0.52,0c0.76,0.04,1.32,0.58,1.34,1.31
		c0.02,0.75-0.51,1.34-1.29,1.41c-0.17,0.01-0.35,0.01-0.52,0.01c-11.86,0-23.73,0-35.59,0c-0.2,0-0.41,0-0.69,0
		c0,0.19,0,0.36,0,0.52c0,9.62,0,19.23-0.01,28.85c0,0.47,0.15,0.57,0.59,0.57c13.22-0.01,26.43-0.01,39.65,0
		c0.48,0,0.6-0.12,0.6-0.6c-0.01-13.2-0.01-26.4-0.01-39.59c0-0.6,0-0.6-0.62-0.6c-1.71,0-3.43,0-5.14,0c-0.17,0-0.34,0-0.57,0
		c0,0.23,0.01,0.41,0,0.59c-0.04,0.79-0.61,1.35-1.35,1.35c-0.72,0-1.17-0.49-1.21-1.34c-0.01-0.18,0-0.37,0-0.58
		c-3.37,0-6.68,0-10.04,0c0,0.6,0.04,1.24-0.53,1.62c-0.25,0.16-0.58,0.28-0.87,0.28c-0.83,0.02-1.14-0.44-1.38-1.9
		c-3.3,0-6.61,0-9.97,0c0,0.18,0,0.35,0,0.52c-0.02,0.82-0.58,1.4-1.35,1.4c-0.77,0-1.34-0.56-1.37-1.38
		c-0.02-0.72-0.01-1.45-0.01-2.17c0-0.44,0.02-0.88-0.01-1.32c-0.05-0.83,0.25-1.43,1.03-1.76c0.22,0,0.44,0,0.66,0
		c0.89,0.34,1.14,1.04,1.03,1.94c3.34,0,6.62,0,9.96,0c-0.09-0.91,0.24-1.57,1.07-1.94c0.22,0,0.44,0,0.66,0
		c0.93,0.32,1.12,1.08,1.06,1.94c3.35,0,6.63,0,9.98,0c-0.15-0.92,0.13-1.6,1.02-1.94C37.63,0.87,37.85,0.87,38.07,0.87z"/>
	<path class="st0" d="M25.04,19.8c0.72,0,1.45-0.01,2.17,0c1.54,0.02,2.7,1.12,2.73,2.66c0.03,1.35,0.06,2.7,0,4.05
		c-0.1,2.05-1.35,3.07-3.11,3.02c-1.29-0.04-2.58,0-3.87-0.01c-1.67-0.01-2.81-1.14-2.82-2.81c-0.01-1.37-0.01-2.73,0-4.1
		c0.01-1.68,1.13-2.79,2.82-2.81C23.66,19.8,24.35,19.8,25.04,19.8z M22.81,26.78c1.43,0,2.82,0,4.22,0c0-1.43,0-2.82,0-4.23
		c-1.43,0-2.81,0-4.22,0C22.81,23.96,22.81,25.35,22.81,26.78z"/>
	<path class="st0" d="M24.98,42.26c-0.74,0-1.48,0.02-2.22,0c-1.45-0.04-2.59-1.17-2.61-2.63c-0.02-1.48-0.02-2.95,0-4.43
		c0.02-1.49,1.18-2.64,2.68-2.65c1.46-0.02,2.92-0.02,4.38,0c1.39,0.01,2.6,1.17,2.64,2.57c0.04,1.52,0.04,3.05,0,4.57
		c-0.03,1.42-1.19,2.54-2.62,2.57C26.49,42.28,25.73,42.26,24.98,42.26z M22.81,39.52c1.44,0,2.82,0,4.23,0c0-1.43,0-2.83,0-4.23
		c-1.43,0-2.81,0-4.23,0C22.81,36.71,22.81,38.09,22.81,39.52z"/>
	<path class="st0" d="M32.97,24.65c0-0.74-0.01-1.48,0-2.21c0.03-1.45,1.16-2.6,2.6-2.62c1.51-0.02,3.01-0.03,4.52,0
		c1.4,0.02,2.55,1.15,2.58,2.55c0.04,1.52,0.03,3.04,0,4.57c-0.03,1.42-1.18,2.56-2.61,2.58c-1.49,0.03-2.98,0.03-4.47,0
		c-1.47-0.02-2.6-1.18-2.63-2.66C32.96,26.12,32.97,25.39,32.97,24.65z M39.81,26.79c0-1.44,0-2.83,0-4.24c-1.43,0-2.83,0-4.24,0
		c0,1.43,0,2.83,0,4.24C36.98,26.79,38.38,26.79,39.81,26.79z"/>
	<path class="st0" d="M12.24,42.26c-0.74,0-1.48,0.01-2.22,0c-1.42-0.03-2.56-1.12-2.6-2.53c-0.04-1.55-0.04-3.11,0-4.67
		c0.04-1.38,1.19-2.48,2.57-2.51c1.51-0.03,3.02-0.03,4.53,0c1.42,0.03,2.55,1.15,2.6,2.6c0.04,1.49,0.04,2.99,0,4.48
		c-0.04,1.51-1.2,2.61-2.71,2.63C13.68,42.27,12.96,42.26,12.24,42.26C12.24,42.26,12.24,42.26,12.24,42.26z M14.38,39.52
		c0-1.42,0-2.82,0-4.22c-1.43,0-2.83,0-4.25,0c0,1.42,0,2.81,0,4.22C11.56,39.52,12.96,39.52,14.38,39.52z"/>
	<path class="st0" d="M37.82,42.26c-0.72,0-1.45,0.01-2.17,0c-1.51-0.03-2.66-1.16-2.68-2.66c-0.02-1.46-0.02-2.92,0-4.38
		c0.02-1.5,1.16-2.65,2.66-2.67c1.46-0.02,2.92-0.02,4.38,0c1.44,0.02,2.64,1.21,2.67,2.65c0.02,1.48,0.02,2.95,0,4.43
		c-0.02,1.47-1.17,2.61-2.65,2.64C39.3,42.27,38.56,42.26,37.82,42.26z M39.81,35.3c-1.45,0-2.85,0-4.25,0c0,1.42,0,2.81,0,4.22
		c1.42,0,2.83,0,4.25,0C39.81,38.1,39.81,36.72,39.81,35.3z"/>
</g>
</svg>
